<svg xmlns:xlink="http://www.w3.org/1999/xlink" width="47.458ex" height="23.509ex" style="font-size: 15px; vertical-align: -11.171ex;" viewBox="0 -5312.2 20433 10122" role="img" focusable="false" xmlns="http://www.w3.org/2000/svg">
<defs>
<path stroke-width="1" id="E1-MJMAIN-49" d="M328 0Q307 3 180 3T32 0H21V46H43Q92 46 106 49T126 60Q128 63 128 342Q128 620 126 623Q122 628 118 630T96 635T43 637H21V683H32Q53 680 180 680T328 683H339V637H317Q268 637 254 634T234 623Q232 620 232 342Q232 63 234 60Q238 55 242 53T264 48T317 46H339V0H328Z"></path>
<path stroke-width="1" id="E1-MJMAIN-4C" d="M128 622Q121 629 117 631T101 634T58 637H25V683H36Q48 680 182 680Q324 680 348 683H360V637H333Q273 637 258 635T233 622L232 342V129Q232 57 237 52Q243 47 313 47Q384 47 410 53Q470 70 498 110T536 221Q536 226 537 238T540 261T542 272T562 273H582V268Q580 265 568 137T554 5V0H25V46H58Q100 47 109 49T128 61V622Z"></path>
<path stroke-width="1" id="E1-MJMAIN-50" d="M130 622Q123 629 119 631T103 634T60 637H27V683H214Q237 683 276 683T331 684Q419 684 471 671T567 616Q624 563 624 489Q624 421 573 372T451 307Q429 302 328 301H234V181Q234 62 237 58Q245 47 304 46H337V0H326Q305 3 182 3Q47 3 38 0H27V46H60Q102 47 111 49T130 61V622ZM507 488Q507 514 506 528T500 564T483 597T450 620T397 635Q385 637 307 637H286Q237 637 234 628Q231 624 231 483V342H302H339Q390 342 423 349T481 382Q507 411 507 488Z"></path>
<path stroke-width="1" id="E1-MJMAIN-33" d="M127 463Q100 463 85 480T69 524Q69 579 117 622T233 665Q268 665 277 664Q351 652 390 611T430 522Q430 470 396 421T302 350L299 348Q299 347 308 345T337 336T375 315Q457 262 457 175Q457 96 395 37T238 -22Q158 -22 100 21T42 130Q42 158 60 175T105 193Q133 193 151 175T169 130Q169 119 166 110T159 94T148 82T136 74T126 70T118 67L114 66Q165 21 238 21Q293 21 321 74Q338 107 338 175V195Q338 290 274 322Q259 328 213 329L171 330L168 332Q166 335 166 348Q166 366 174 366Q202 366 232 371Q266 376 294 413T322 525V533Q322 590 287 612Q265 626 240 626Q208 626 181 615T143 592T132 580H135Q138 579 143 578T153 573T165 566T175 555T183 540T186 520Q186 498 172 481T127 463Z"></path>
<path stroke-width="1" id="E1-MJMAIN-32" d="M109 429Q82 429 66 447T50 491Q50 562 103 614T235 666Q326 666 387 610T449 465Q449 422 429 383T381 315T301 241Q265 210 201 149L142 93L218 92Q375 92 385 97Q392 99 409 186V189H449V186Q448 183 436 95T421 3V0H50V19V31Q50 38 56 46T86 81Q115 113 136 137Q145 147 170 174T204 211T233 244T261 278T284 308T305 340T320 369T333 401T340 431T343 464Q343 527 309 573T212 619Q179 619 154 602T119 569T109 550Q109 549 114 549Q132 549 151 535T170 489Q170 464 154 447T109 429Z"></path>
<path stroke-width="1" id="E1-MJMAIN-36" d="M42 313Q42 476 123 571T303 666Q372 666 402 630T432 550Q432 525 418 510T379 495Q356 495 341 509T326 548Q326 592 373 601Q351 623 311 626Q240 626 194 566Q147 500 147 364L148 360Q153 366 156 373Q197 433 263 433H267Q313 433 348 414Q372 400 396 374T435 317Q456 268 456 210V192Q456 169 451 149Q440 90 387 34T253 -22Q225 -22 199 -14T143 16T92 75T56 172T42 313ZM257 397Q227 397 205 380T171 335T154 278T148 216Q148 133 160 97T198 39Q222 21 251 21Q302 21 329 59Q342 77 347 104T352 209Q352 289 347 316T329 361Q302 397 257 397Z"></path>
<path stroke-width="1" id="E1-MJMAIN-34" d="M462 0Q444 3 333 3Q217 3 199 0H190V46H221Q241 46 248 46T265 48T279 53T286 61Q287 63 287 115V165H28V211L179 442Q332 674 334 675Q336 677 355 677H373L379 671V211H471V165H379V114Q379 73 379 66T385 54Q393 47 442 46H471V0H462ZM293 211V545L74 212L183 211H293Z"></path>
<path stroke-width="1" id="E1-MJTT-63" d="M291 -6Q196 -6 131 60T66 216Q66 296 119 361Q154 403 200 421T273 439Q275 440 293 440H313Q400 440 433 409Q454 388 454 359Q454 335 439 321T402 306Q380 306 365 321T350 357V362L340 363Q339 363 326 363T303 364Q280 364 266 362Q217 352 184 313T151 215Q151 153 199 112T313 70Q341 70 357 85T381 118T394 140Q402 146 424 146Q443 146 447 144Q466 137 466 117Q466 106 457 88T429 47T374 10T291 -6Z"></path>
<path stroke-width="1" id="E1-MJTT-68" d="M4 573Q4 596 15 603T52 611H90H124Q146 611 155 608T171 591Q173 586 173 489Q173 394 175 394L186 402Q197 410 219 420T269 434Q278 436 306 436Q343 436 371 423Q411 402 423 365T436 265Q436 257 436 239T435 211V198V76H498Q512 67 516 60T520 38Q520 9 498 1H308Q286 10 286 32V38V46Q286 65 303 73Q309 76 329 76H351V188Q351 204 351 230T352 266Q352 321 341 341T288 361Q253 361 222 341T176 274L174 264L173 170V76H236Q250 67 254 60T258 38Q258 9 236 1H27Q4 8 4 38Q4 53 8 60T27 76H89V535H58L27 536Q4 543 4 573Z"></path>
<path stroke-width="1" id="E1-MJTT-61" d="M126 306Q105 306 90 321T74 359Q74 439 211 439Q268 439 276 438Q343 426 383 390T430 306Q431 301 431 190V81Q446 79 465 78T492 76T509 72T521 60T524 38Q524 11 506 3Q502 1 466 1Q426 1 406 5T379 14T355 36L345 30Q284 -6 205 -6Q135 -6 92 39T48 141Q48 182 79 212T158 256T252 278T342 285H347V290Q347 315 325 335T267 362Q258 363 224 363Q189 363 185 362H179L178 358Q178 353 178 352T176 345T174 337T170 330T165 322T158 316T150 311T139 308T126 306ZM132 140Q132 115 157 93T224 70Q269 70 302 87T344 133Q346 139 347 175V211H339Q256 209 194 190T132 140Z"></path>
<path stroke-width="1" id="E1-MJTT-72" d="M327 76Q359 76 369 70T380 38Q380 10 359 1H47Q24 8 24 38Q24 54 28 61T47 76H145V355H96L47 356Q24 363 24 393Q24 409 28 416T47 431H207Q223 419 226 414T229 393V387V369Q297 437 394 437Q436 437 461 417T487 368Q487 347 473 332T438 317Q428 317 420 320T407 327T398 337T393 347T390 356L388 361Q348 356 324 345Q228 299 228 170Q228 161 228 151T229 138V76H293H327Z"></path>
<path stroke-width="1" id="E1-MJMAIN-38" d="M70 417T70 494T124 618T248 666Q319 666 374 624T429 515Q429 485 418 459T392 417T361 389T335 371T324 363L338 354Q352 344 366 334T382 323Q457 264 457 174Q457 95 399 37T249 -22Q159 -22 101 29T43 155Q43 263 172 335L154 348Q133 361 127 368Q70 417 70 494ZM286 386L292 390Q298 394 301 396T311 403T323 413T334 425T345 438T355 454T364 471T369 491T371 513Q371 556 342 586T275 624Q268 625 242 625Q201 625 165 599T128 534Q128 511 141 492T167 463T217 431Q224 426 228 424L286 386ZM250 21Q308 21 350 55T392 137Q392 154 387 169T375 194T353 216T330 234T301 253T274 270Q260 279 244 289T218 306L210 311Q204 311 181 294T133 239T107 157Q107 98 150 60T250 21Z"></path>
<path stroke-width="1" id="E1-MJTT-73" d="M72 317Q72 361 108 396T229 439Q231 439 245 439T268 440Q303 439 324 435T353 427T363 423L372 432Q380 440 397 440Q430 440 430 395Q430 390 430 380T429 366V335Q429 311 422 302T387 293Q364 293 355 300T346 316T343 336T325 353Q306 364 257 364Q209 364 178 351T147 317Q147 284 231 272Q327 256 357 247Q458 210 458 129V121Q458 74 413 34T271 -6Q246 -6 224 -3T189 5T165 14T150 22T144 26Q142 23 139 18T135 11T132 6T128 1T124 -2T119 -4T113 -5T104 -6Q84 -6 78 6T71 43Q71 48 71 60T72 79Q72 132 73 141T81 157Q90 166 115 166Q135 166 142 162T157 140Q168 108 191 90T260 70Q297 70 323 76T361 91T379 110T384 129Q384 157 346 171T247 195T165 212Q119 228 96 256T72 317Z"></path>
<path stroke-width="1" id="E1-MJTT-6F" d="M52 216Q52 318 118 379T261 440Q343 440 407 378T472 216Q472 121 410 58T262 -6Q176 -6 114 58T52 216ZM388 225Q388 281 351 322T261 364Q213 364 175 325T136 225Q136 158 174 114T262 70T350 114T388 225Z"></path>
<path stroke-width="1" id="E1-MJTT-74" d="M25 395Q26 405 26 408T29 416T35 423T48 431H145V481L146 532Q154 547 161 550T184 554H189Q218 554 227 534Q229 529 229 480V431H405Q406 430 411 427T418 422T422 416T426 407T427 393Q427 387 427 382T424 374T421 368T417 363T413 360T408 358L405 356L317 355H229V249Q229 237 229 214T228 179Q228 126 241 98T295 70Q354 70 365 149Q366 167 375 174Q383 182 407 182H415Q438 182 446 166Q448 161 448 148Q448 84 398 39T282 -6Q226 -6 189 29T146 128Q145 134 145 247V355H96H72Q45 355 35 362T25 395Z"></path>
<path stroke-width="1" id="E1-MJMAIN-31" d="M213 578L200 573Q186 568 160 563T102 556H83V602H102Q149 604 189 617T245 641T273 663Q275 666 285 666Q294 666 302 660V361L303 61Q310 54 315 52T339 48T401 46H427V0H416Q395 3 257 3Q121 3 100 0H88V46H114Q136 46 152 46T177 47T193 50T201 52T207 57T213 61V578Z"></path>
<path stroke-width="1" id="E1-MJTT-69" d="M202 538T202 559T218 596T260 612Q283 612 300 597T317 560Q317 538 300 523T260 507Q235 507 219 522ZM411 76Q441 76 451 69T462 38Q462 29 462 26T460 18T453 9T440 1H94Q72 8 72 33V38Q72 46 72 49T74 58T81 68T94 76H233V355H167L102 356Q80 363 80 393Q80 418 91 425T138 432Q145 432 165 432T200 431H295Q297 429 303 425T310 420T314 415T317 404T317 389T318 363Q318 354 318 314T317 241V76H378H411Z"></path>
<path stroke-width="1" id="E1-MJTT-6E" d="M89 431Q94 431 105 431T122 432Q173 432 173 399Q173 394 175 394Q176 394 190 404T233 425T298 436Q343 436 371 423Q411 402 423 365T436 265Q436 257 436 239T435 211V198V76H498Q512 67 516 60T520 38Q520 9 498 1H308Q286 9 286 32V38V45Q286 65 303 73Q309 76 329 76H351V188Q351 204 351 230T352 266Q352 321 341 341T288 361Q253 361 222 341T176 274L174 264L173 170V76H236Q250 67 254 60T258 38Q258 9 236 1H27Q4 8 4 38Q4 53 8 60T27 76H89V355H58L27 356Q4 363 4 393Q4 408 8 415T27 431H89Z"></path>
<path stroke-width="1" id="E1-MJTT-6C" d="M51 573Q51 602 73 610H76Q79 610 84 610T97 610T113 610T133 611T155 611T179 611H282Q301 598 304 586V76H452Q466 67 470 60T474 38Q474 10 452 1H73Q51 9 51 32V38Q51 54 54 60T73 76H220V535H146L73 536Q51 545 51 567V573Z"></path>
<path stroke-width="1" id="E1-MJTT-67" d="M60 274Q60 337 107 386T233 436Q278 436 316 417L329 410L338 416Q384 442 427 442T489 423T509 381T494 345T460 332Q449 332 440 338Q432 341 427 348T419 360T415 365Q414 364 410 364L383 355Q406 320 406 274Q406 211 358 162T233 112Q189 112 155 128L146 133Q142 125 142 115Q142 99 150 85T175 71Q182 72 187 70Q188 70 195 70T218 70T254 69Q259 69 275 69T297 69T318 68T340 66T361 62T384 57T405 49T428 38Q495 -1 495 -76Q495 -143 427 -186T262 -229Q161 -229 94 -185T29 -73Q30 -60 33 -48T39 -26T47 -8T57 8T67 20T77 30T86 38L91 43Q91 44 86 53T75 80T70 117Q70 142 89 183L83 194Q60 232 60 274ZM321 274Q321 312 296 337T230 362Q197 362 171 338T145 274Q145 235 170 211T233 187Q273 187 297 212T321 274ZM422 -78Q422 -54 408 -38T366 -15T315 -6T255 -4H200Q198 -4 193 -4T183 -3Q148 -3 125 -26T102 -78Q102 -110 151 -132T261 -154Q321 -154 371 -132T422 -78Z"></path>
<path stroke-width="1" id="E1-MJTT-76" d="M24 392Q24 417 36 424T79 432Q85 432 103 432T132 431H215Q229 422 233 415T237 393Q237 355 198 355H193H172L262 77L352 355H331H323Q288 355 288 393Q288 409 291 415T310 431H478Q491 423 495 416T500 393Q500 364 478 356L452 355H426L374 190Q320 24 318 20Q307 -4 273 -4H262H251Q217 -4 206 20Q204 24 150 190L98 355H72L47 356Q24 363 24 392Z"></path>
<path stroke-width="1" id="E1-MJTT-64" d="M266 573Q266 596 277 603T314 611H352H385Q411 611 419 607T435 586V76H498Q512 67 516 60T520 38Q520 9 498 1H436Q429 1 417 1T398 0Q375 0 363 7T351 34V43L342 36Q288 -6 223 -6Q143 -6 87 58T31 216Q31 307 88 372T230 437Q292 437 342 405L351 399V535H320L289 536Q266 543 266 573ZM351 290Q347 302 337 316T302 346T244 361Q193 361 154 319T115 215Q115 152 152 111T235 70Q314 70 351 170V290Z"></path>
<path stroke-width="1" id="E1-MJMAIN-2217" d="M229 286Q216 420 216 436Q216 454 240 464Q241 464 245 464T251 465Q263 464 273 456T283 436Q283 419 277 356T270 286L328 328Q384 369 389 372T399 375Q412 375 423 365T435 338Q435 325 425 315Q420 312 357 282T289 250L355 219L425 184Q434 175 434 161Q434 146 425 136T401 125Q393 125 383 131T328 171L270 213Q283 79 283 63Q283 53 276 44T250 35Q231 35 224 44T216 63Q216 80 222 143T229 213L171 171Q115 130 110 127Q106 124 100 124Q87 124 76 134T64 161Q64 166 64 169T67 175T72 181T81 188T94 195T113 204T138 215T170 230T210 250L74 315Q65 324 65 338Q65 353 74 363T98 374Q106 374 116 368T171 328L229 286Z"></path>
</defs>
<g stroke="currentColor" fill="currentColor" stroke-width="0" transform="matrix(1 0 0 -1 0 0)">
<g transform="translate(167,0)">
<g transform="translate(389,0)">
<g transform="translate(1313,2780)">
 <use xlink:href="#E1-MJTT-63" x="0" y="0"></use>
 <use xlink:href="#E1-MJTT-68" x="525" y="0"></use>
 <use xlink:href="#E1-MJTT-61" x="1051" y="0"></use>
 <use xlink:href="#E1-MJTT-72" x="1576" y="0"></use>
</g>
<g transform="translate(1050,1380)">
 <use xlink:href="#E1-MJTT-73" x="0" y="0"></use>
 <use xlink:href="#E1-MJTT-68" x="525" y="0"></use>
 <use xlink:href="#E1-MJTT-6F" x="1051" y="0"></use>
 <use xlink:href="#E1-MJTT-72" x="1576" y="0"></use>
 <use xlink:href="#E1-MJTT-74" x="2102" y="0"></use>
</g>
<g transform="translate(1576,-20)">
 <use xlink:href="#E1-MJTT-69" x="0" y="0"></use>
 <use xlink:href="#E1-MJTT-6E" x="525" y="0"></use>
 <use xlink:href="#E1-MJTT-74" x="1051" y="0"></use>
</g>
<g transform="translate(1313,-1420)">
 <use xlink:href="#E1-MJTT-6C" x="0" y="0"></use>
 <use xlink:href="#E1-MJTT-6F" x="525" y="0"></use>
 <use xlink:href="#E1-MJTT-6E" x="1051" y="0"></use>
 <use xlink:href="#E1-MJTT-67" x="1576" y="0"></use>
</g>
<g transform="translate(0,-2850)">
 <use xlink:href="#E1-MJTT-6C" x="0" y="0"></use>
 <use xlink:href="#E1-MJTT-6F" x="525" y="0"></use>
 <use xlink:href="#E1-MJTT-6E" x="1051" y="0"></use>
 <use xlink:href="#E1-MJTT-67" x="1576" y="0"></use>
 <use xlink:href="#E1-MJTT-6C" x="2627" y="0"></use>
 <use xlink:href="#E1-MJTT-6F" x="3152" y="0"></use>
 <use xlink:href="#E1-MJTT-6E" x="3678" y="0"></use>
 <use xlink:href="#E1-MJTT-67" x="4203" y="0"></use>
</g>
<g transform="translate(800,-4280)">
 <use xlink:href="#E1-MJTT-76" x="0" y="0"></use>
 <use xlink:href="#E1-MJTT-6F" x="525" y="0"></use>
 <use xlink:href="#E1-MJTT-69" x="1051" y="0"></use>
 <use xlink:href="#E1-MJTT-64" x="1576" y="0"></use>
 <use xlink:href="#E1-MJMAIN-2217" x="2627" y="0"></use>
</g>
</g>
<line stroke-linecap="square" stroke-width="20.9" y1="10" x2="10" x1="10" y2="9880" transform="translate(5618,-4696)"></line>
<g transform="translate(6118,0)">
<g transform="translate(0,4180)">
 <use xlink:href="#E1-MJMAIN-49" x="0" y="0"></use>
 <use xlink:href="#E1-MJMAIN-4C" x="361" y="0"></use>
 <use xlink:href="#E1-MJMAIN-50" x="987" y="0"></use>
<g transform="translate(1668,0)">
 <use xlink:href="#E1-MJMAIN-33"></use>
 <use xlink:href="#E1-MJMAIN-32" x="500" y="0"></use>
</g>
</g>
 <use xlink:href="#E1-MJMAIN-38" x="1084" y="2780"></use>
<g transform="translate(834,1380)">
 <use xlink:href="#E1-MJMAIN-31"></use>
 <use xlink:href="#E1-MJMAIN-36" x="500" y="0"></use>
</g>
<g transform="translate(834,-20)">
 <use xlink:href="#E1-MJMAIN-33"></use>
 <use xlink:href="#E1-MJMAIN-32" x="500" y="0"></use>
</g>
<g transform="translate(834,-1420)">
 <use xlink:href="#E1-MJMAIN-33"></use>
 <use xlink:href="#E1-MJMAIN-32" x="500" y="0"></use>
</g>
<g transform="translate(834,-2850)">
 <use xlink:href="#E1-MJMAIN-36"></use>
 <use xlink:href="#E1-MJMAIN-34" x="500" y="0"></use>
</g>
<g transform="translate(834,-4280)">
 <use xlink:href="#E1-MJMAIN-33"></use>
 <use xlink:href="#E1-MJMAIN-32" x="500" y="0"></use>
</g>
</g>
<line stroke-linecap="square" stroke-width="20.9" y1="10" x2="10" x1="10" y2="9880" transform="translate(9288,-4696)"></line>
<g transform="translate(9788,0)">
<g transform="translate(0,4180)">
 <use xlink:href="#E1-MJMAIN-4C" x="0" y="0"></use>
 <use xlink:href="#E1-MJMAIN-50" x="625" y="0"></use>
<g transform="translate(1307,0)">
 <use xlink:href="#E1-MJMAIN-36"></use>
 <use xlink:href="#E1-MJMAIN-34" x="500" y="0"></use>
</g>
</g>
 <use xlink:href="#E1-MJMAIN-38" x="903" y="2780"></use>
<g transform="translate(653,1380)">
 <use xlink:href="#E1-MJMAIN-31"></use>
 <use xlink:href="#E1-MJMAIN-36" x="500" y="0"></use>
</g>
<g transform="translate(653,-20)">
 <use xlink:href="#E1-MJMAIN-33"></use>
 <use xlink:href="#E1-MJMAIN-32" x="500" y="0"></use>
</g>
<g transform="translate(653,-1420)">
 <use xlink:href="#E1-MJMAIN-36"></use>
 <use xlink:href="#E1-MJMAIN-34" x="500" y="0"></use>
</g>
<g transform="translate(653,-2850)">
 <use xlink:href="#E1-MJMAIN-36"></use>
 <use xlink:href="#E1-MJMAIN-34" x="500" y="0"></use>
</g>
<g transform="translate(653,-4280)">
 <use xlink:href="#E1-MJMAIN-36"></use>
 <use xlink:href="#E1-MJMAIN-34" x="500" y="0"></use>
</g>
</g>
<line stroke-linecap="square" stroke-width="20.9" y1="10" x2="10" x1="10" y2="9880" transform="translate(12596,-4696)"></line>
<g transform="translate(13096,0)">
<g transform="translate(0,4180)">
 <use xlink:href="#E1-MJMAIN-4C" x="0" y="0"></use>
 <use xlink:href="#E1-MJMAIN-4C" x="625" y="0"></use>
 <use xlink:href="#E1-MJMAIN-50" x="1251" y="0"></use>
<g transform="translate(1932,0)">
 <use xlink:href="#E1-MJMAIN-36"></use>
 <use xlink:href="#E1-MJMAIN-34" x="500" y="0"></use>
</g>
</g>
 <use xlink:href="#E1-MJMAIN-38" x="1216" y="2780"></use>
<g transform="translate(966,1380)">
 <use xlink:href="#E1-MJMAIN-31"></use>
 <use xlink:href="#E1-MJMAIN-36" x="500" y="0"></use>
</g>
<g transform="translate(966,-20)">
 <use xlink:href="#E1-MJMAIN-33"></use>
 <use xlink:href="#E1-MJMAIN-32" x="500" y="0"></use>
</g>
<g transform="translate(966,-1420)">
 <use xlink:href="#E1-MJMAIN-33"></use>
 <use xlink:href="#E1-MJMAIN-32" x="500" y="0"></use>
</g>
<g transform="translate(966,-2850)">
 <use xlink:href="#E1-MJMAIN-36"></use>
 <use xlink:href="#E1-MJMAIN-34" x="500" y="0"></use>
</g>
<g transform="translate(966,-4280)">
 <use xlink:href="#E1-MJMAIN-36"></use>
 <use xlink:href="#E1-MJMAIN-34" x="500" y="0"></use>
</g>
</g>
<line stroke-linecap="square" stroke-width="20.9" y1="10" x2="10" x1="10" y2="9880" transform="translate(16529,-4696)"></line>
<g transform="translate(17029,0)">
<g transform="translate(0,4180)">
 <use xlink:href="#E1-MJMAIN-49" x="0" y="0"></use>
 <use xlink:href="#E1-MJMAIN-4C" x="361" y="0"></use>
 <use xlink:href="#E1-MJMAIN-50" x="987" y="0"></use>
<g transform="translate(1668,0)">
 <use xlink:href="#E1-MJMAIN-36"></use>
 <use xlink:href="#E1-MJMAIN-34" x="500" y="0"></use>
</g>
</g>
 <use xlink:href="#E1-MJMAIN-38" x="1084" y="2780"></use>
<g transform="translate(834,1380)">
 <use xlink:href="#E1-MJMAIN-31"></use>
 <use xlink:href="#E1-MJMAIN-36" x="500" y="0"></use>
</g>
<g transform="translate(834,-20)">
 <use xlink:href="#E1-MJMAIN-36"></use>
 <use xlink:href="#E1-MJMAIN-34" x="500" y="0"></use>
</g>
<g transform="translate(834,-1420)">
 <use xlink:href="#E1-MJMAIN-36"></use>
 <use xlink:href="#E1-MJMAIN-34" x="500" y="0"></use>
</g>
<g transform="translate(834,-2850)">
 <use xlink:href="#E1-MJMAIN-36"></use>
 <use xlink:href="#E1-MJMAIN-34" x="500" y="0"></use>
</g>
<g transform="translate(834,-4280)">
 <use xlink:href="#E1-MJMAIN-36"></use>
 <use xlink:href="#E1-MJMAIN-34" x="500" y="0"></use>
</g>
</g>
<line stroke-linecap="square" stroke-width="20.9" y2="10" y1="10" x1="10" x2="20088" transform="translate(0,3769)"></line>
</g>
</g>
</svg>