<svg id="SvgjsSvg1360" width="899.6448669433594" height="987.8579483032227" xmlns="http://www.w3.org/2000/svg" version="1.1" xmlns:xlink="http://www.w3.org/1999/xlink" xmlns:svgjs="http://svgjs.com/svgjs"><defs id="SvgjsDefs1361"><marker id="SvgjsMarker1436" markerWidth="16" markerHeight="12" refX="16" refY="6" viewBox="0 0 16 12" orient="auto" markerUnits="userSpaceOnUse" stroke-dasharray="0,0"><path id="SvgjsPath1437" d="M0,2 L14,6 L0,11 L0,2" fill="#323232" stroke="#323232" stroke-width="2"></path></marker><marker id="SvgjsMarker1440" markerWidth="16" markerHeight="12" refX="16" refY="6" viewBox="0 0 16 12" orient="auto" markerUnits="userSpaceOnUse" stroke-dasharray="0,0"><path id="SvgjsPath1441" d="M0,2 L14,6 L0,11 L0,2" fill="#323232" stroke="#323232" stroke-width="2"></path></marker><marker id="SvgjsMarker1444" markerWidth="16" markerHeight="12" refX="16" refY="6" viewBox="0 0 16 12" orient="auto" markerUnits="userSpaceOnUse" stroke-dasharray="0,0"><path id="SvgjsPath1445" d="M0,2 L14,6 L0,11 L0,2" fill="#323232" stroke="#323232" stroke-width="2"></path></marker><marker id="SvgjsMarker1448" markerWidth="16" markerHeight="12" refX="16" refY="6" viewBox="0 0 16 12" orient="auto" markerUnits="userSpaceOnUse" stroke-dasharray="0,0"><path id="SvgjsPath1449" d="M0,2 L14,6 L0,11 L0,2" fill="#323232" stroke="#323232" stroke-width="2"></path></marker><marker id="SvgjsMarker1452" markerWidth="16" markerHeight="12" refX="16" refY="6" viewBox="0 0 16 12" orient="auto" markerUnits="userSpaceOnUse" stroke-dasharray="0,0"><path id="SvgjsPath1453" d="M0,2 L14,6 L0,11 L0,2" fill="#323232" stroke="#323232" stroke-width="2"></path></marker><marker id="SvgjsMarker1456" markerWidth="16" markerHeight="12" refX="16" refY="6" viewBox="0 0 16 12" orient="auto" markerUnits="userSpaceOnUse" stroke-dasharray="0,0"><path id="SvgjsPath1457" d="M0,2 L14,6 L0,11 L0,2" fill="#323232" stroke="#323232" stroke-width="2"></path></marker><marker id="SvgjsMarker1460" markerWidth="16" markerHeight="12" refX="16" refY="6" viewBox="0 0 16 12" orient="auto" markerUnits="userSpaceOnUse" stroke-dasharray="0,0"><path id="SvgjsPath1461" d="M0,2 L14,6 L0,11 L0,2" fill="#323232" stroke="#323232" stroke-width="2"></path></marker><marker id="SvgjsMarker1464" markerWidth="16" markerHeight="12" refX="16" refY="6" viewBox="0 0 16 12" orient="auto" markerUnits="userSpaceOnUse" stroke-dasharray="0,0"><path id="SvgjsPath1465" d="M0,2 L14,6 L0,11 L0,2" fill="#323232" stroke="#323232" stroke-width="2"></path></marker><marker id="SvgjsMarker1480" markerWidth="16" markerHeight="12" refX="16" refY="6" viewBox="0 0 16 12" orient="auto" markerUnits="userSpaceOnUse" stroke-dasharray="0,0"><path id="SvgjsPath1481" d="M0,2 L14,6 L0,11 L0,2" fill="#323232" stroke="#323232" stroke-width="2"></path></marker><marker id="SvgjsMarker1484" markerWidth="16" markerHeight="12" refX="16" refY="6" viewBox="0 0 16 12" orient="auto" markerUnits="userSpaceOnUse" stroke-dasharray="0,0"><path id="SvgjsPath1485" d="M0,2 L14,6 L0,11 L0,2" fill="#323232" stroke="#323232" stroke-width="2"></path></marker><marker id="SvgjsMarker1488" markerWidth="16" markerHeight="12" refX="16" refY="6" viewBox="0 0 16 12" orient="auto" markerUnits="userSpaceOnUse" stroke-dasharray="0,0"><path id="SvgjsPath1489" d="M0,2 L14,6 L0,11 L0,2" fill="#323232" stroke="#323232" stroke-width="2"></path></marker><marker id="SvgjsMarker1492" markerWidth="16" markerHeight="12" refX="16" refY="6" viewBox="0 0 16 12" orient="auto" markerUnits="userSpaceOnUse" stroke-dasharray="0,0"><path id="SvgjsPath1493" d="M0,2 L14,6 L0,11 L0,2" fill="#323232" stroke="#323232" stroke-width="2"></path></marker><marker id="SvgjsMarker1520" markerWidth="16" markerHeight="12" refX="16" refY="6" viewBox="0 0 16 12" orient="auto" markerUnits="userSpaceOnUse" stroke-dasharray="0,0"><path id="SvgjsPath1521" d="M0,2 L14,6 L0,11 L0,2" fill="#323232" stroke="#323232" stroke-width="2"></path></marker><marker id="SvgjsMarker1524" markerWidth="16" markerHeight="12" refX="16" refY="6" viewBox="0 0 16 12" orient="auto" markerUnits="userSpaceOnUse" stroke-dasharray="0,0"><path id="SvgjsPath1525" d="M0,2 L14,6 L0,11 L0,2" fill="#323232" stroke="#323232" stroke-width="2"></path></marker><marker id="SvgjsMarker1528" markerWidth="16" markerHeight="12" refX="16" refY="6" viewBox="0 0 16 12" orient="auto" markerUnits="userSpaceOnUse" stroke-dasharray="0,0"><path id="SvgjsPath1529" d="M0,2 L14,6 L0,11 L0,2" fill="#323232" stroke="#323232" stroke-width="2"></path></marker><marker id="SvgjsMarker1550" markerWidth="16" markerHeight="12" refX="16" refY="6" viewBox="0 0 16 12" orient="auto" markerUnits="userSpaceOnUse" stroke-dasharray="0,0"><path id="SvgjsPath1551" d="M0,2 L14,6 L0,11 L0,2" fill="#323232" stroke="#323232" stroke-width="2"></path></marker><marker id="SvgjsMarker1554" markerWidth="16" markerHeight="12" refX="16" refY="6" viewBox="0 0 16 12" orient="auto" markerUnits="userSpaceOnUse" stroke-dasharray="0,0"><path id="SvgjsPath1555" d="M0,2 L14,6 L0,11 L0,2" fill="#323232" stroke="#323232" stroke-width="2"></path></marker><marker id="SvgjsMarker1558" markerWidth="16" markerHeight="12" refX="16" refY="6" viewBox="0 0 16 12" orient="auto" markerUnits="userSpaceOnUse" stroke-dasharray="0,0"><path id="SvgjsPath1559" d="M0,2 L14,6 L0,11 L0,2" fill="#323232" stroke="#323232" stroke-width="2"></path></marker><marker id="SvgjsMarker1562" markerWidth="16" markerHeight="12" refX="16" refY="6" viewBox="0 0 16 12" orient="auto" markerUnits="userSpaceOnUse" stroke-dasharray="0,0"><path id="SvgjsPath1563" d="M0,2 L14,6 L0,11 L0,2" fill="#323232" stroke="#323232" stroke-width="2"></path></marker><marker id="SvgjsMarker1566" markerWidth="16" markerHeight="12" refX="16" refY="6" viewBox="0 0 16 12" orient="auto" markerUnits="userSpaceOnUse" stroke-dasharray="0,0"><path id="SvgjsPath1567" d="M0,2 L14,6 L0,11 L0,2" fill="#323232" stroke="#323232" stroke-width="2"></path></marker><marker id="SvgjsMarker1576" markerWidth="16" markerHeight="12" refX="16" refY="6" viewBox="0 0 16 12" orient="auto" markerUnits="userSpaceOnUse" stroke-dasharray="0,0"><path id="SvgjsPath1577" d="M0,2 L14,6 L0,11 L0,2" fill="#323232" stroke="#323232" stroke-width="2"></path></marker><marker id="SvgjsMarker1592" markerWidth="16" markerHeight="12" refX="16" refY="6" viewBox="0 0 16 12" orient="auto" markerUnits="userSpaceOnUse" stroke-dasharray="0,0"><path id="SvgjsPath1593" d="M0,2 L14,6 L0,11 L0,2" fill="#323232" stroke="#323232" stroke-width="2"></path></marker><marker id="SvgjsMarker1608" markerWidth="16" markerHeight="12" refX="16" refY="6" viewBox="0 0 16 12" orient="auto" markerUnits="userSpaceOnUse" stroke-dasharray="0,0"><path id="SvgjsPath1609" d="M0,2 L14,6 L0,11 L0,2" fill="#323232" stroke="#323232" stroke-width="2"></path></marker></defs><g id="SvgjsG1362" transform="translate(221.3045809404456,163.0106674585587)"><path id="SvgjsPath1363" d="M 0 4Q 0 0 4 0L 95 0Q 99 0 99 4L 99 52Q 99 56 95 56L 4 56Q 0 56 0 52Z" stroke="rgba(50,50,50,1)" stroke-width="2" fill-opacity="1" fill="#cce5ff"></path><g id="SvgjsG1364"><text id="SvgjsText1365" font-family="微软雅黑" text-anchor="middle" font-size="16px" width="79px" fill="#323232" font-weight="400" align="middle" anchor="middle" family="微软雅黑" size="16px" weight="400" font-style="" opacity="1" y="15.6" transform="rotate(0)"><tspan id="SvgjsTspan1366" dy="20" x="49.5"><tspan id="SvgjsTspan1367" style="text-decoration:;">socket()</tspan></tspan></text></g></g><g id="SvgjsG1368" transform="translate(221.3045809404456,276.5227757206669)"><path id="SvgjsPath1369" d="M 0 4Q 0 0 4 0L 95 0Q 99 0 99 4L 99 52Q 99 56 95 56L 4 56Q 0 56 0 52Z" stroke="rgba(50,50,50,1)" stroke-width="2" fill-opacity="1" fill="#ffffcc"></path><g id="SvgjsG1370"><text id="SvgjsText1371" font-family="微软雅黑" text-anchor="middle" font-size="16px" width="79px" fill="#323232" font-weight="400" align="middle" anchor="middle" family="微软雅黑" size="16px" weight="400" font-style="" opacity="1" y="15.6" transform="rotate(0)"><tspan id="SvgjsTspan1372" dy="20" x="49.5"><tspan id="SvgjsTspan1373" style="text-decoration:;">connect()</tspan></tspan></text></g></g><g id="SvgjsG1374" transform="translate(577.4333968389824,153.35895805684922)"><path id="SvgjsPath1375" d="M 0 4Q 0 0 4 0L 95 0Q 99 0 99 4L 99 52Q 99 56 95 56L 4 56Q 0 56 0 52Z" stroke="rgba(50,50,50,1)" stroke-width="2" fill-opacity="1" fill="#cce5ff"></path><g id="SvgjsG1376"><text id="SvgjsText1377" font-family="微软雅黑" text-anchor="middle" font-size="16px" width="79px" fill="#323232" font-weight="400" align="middle" anchor="middle" family="微软雅黑" size="16px" weight="400" font-style="" opacity="1" y="15.6" transform="rotate(0)"><tspan id="SvgjsTspan1378" dy="20" x="49.5"><tspan id="SvgjsTspan1379" style="text-decoration:;">bind()</tspan></tspan></text></g></g><g id="SvgjsG1380" transform="translate(577.4333968389824,446.75425720214855)"><path id="SvgjsPath1381" d="M 0 4Q 0 0 4 0L 95 0Q 99 0 99 4L 99 52Q 99 56 95 56L 4 56Q 0 56 0 52Z" stroke="rgba(50,50,50,1)" stroke-width="2" fill-opacity="1" fill="#cce5ff"></path><g id="SvgjsG1382"><text id="SvgjsText1383" font-family="微软雅黑" text-anchor="middle" font-size="16px" width="79px" fill="#323232" font-weight="400" align="middle" anchor="middle" family="微软雅黑" size="16px" weight="400" font-style="" opacity="1" y="15.6" transform="rotate(0)"><tspan id="SvgjsTspan1384" dy="20" x="49.5"><tspan id="SvgjsTspan1385" style="text-decoration:;">accept</tspan></tspan></text></g></g><g id="SvgjsG1386" transform="translate(577.4333968389824,244.76974865513972)"><path id="SvgjsPath1387" d="M 0 4Q 0 0 4 0L 95 0Q 99 0 99 4L 99 52Q 99 56 95 56L 4 56Q 0 56 0 52Z" stroke="rgba(50,50,50,1)" stroke-width="2" fill-opacity="1" fill="#ffffcc"></path><g id="SvgjsG1388"><text id="SvgjsText1389" font-family="微软雅黑" text-anchor="middle" font-size="16px" width="79px" fill="#323232" font-weight="400" align="middle" anchor="middle" family="微软雅黑" size="16px" weight="400" font-style="" opacity="1" y="15.6" transform="rotate(0)"><tspan id="SvgjsTspan1390" dy="20" x="49.5"><tspan id="SvgjsTspan1391" style="text-decoration:;">listen()</tspan></tspan></text></g></g><g id="SvgjsG1392" transform="translate(577.4333968389824,70.00425720214848)"><path id="SvgjsPath1393" d="M 0 4Q 0 0 4 0L 95 0Q 99 0 99 4L 99 52Q 99 56 95 56L 4 56Q 0 56 0 52Z" stroke="rgba(50,50,50,1)" stroke-width="2" fill-opacity="1" fill="#cce5ff"></path><g id="SvgjsG1394"><text id="SvgjsText1395" font-family="微软雅黑" text-anchor="middle" font-size="16px" width="79px" fill="#323232" font-weight="400" align="middle" anchor="middle" family="微软雅黑" size="16px" weight="400" font-style="" opacity="1" y="15.6" transform="rotate(0)"><tspan id="SvgjsTspan1396" dy="20" x="49.5"><tspan id="SvgjsTspan1397" style="text-decoration:;">socket()</tspan></tspan></text></g></g><g id="SvgjsG1398" transform="translate(212.1136474609375,119.01066745855871)"><path id="SvgjsPath1399" d="M 0 0L 120 0L 120 40L 0 40Z" stroke="none" fill="none"></path><g id="SvgjsG1400"><text id="SvgjsText1401" font-family="微软雅黑" text-anchor="middle" font-size="20px" width="120px" fill="#323232" font-weight="700" align="middle" anchor="middle" family="微软雅黑" size="20px" weight="700" font-style="" opacity="1" y="4.5" transform="rotate(0)"><tspan id="SvgjsTspan1402" dy="25" x="60"><tspan id="SvgjsTspan1403" style="text-decoration:;">TCP Client</tspan></tspan></text></g></g><g id="SvgjsG1404" transform="translate(566.1136474609375,25.00425720214848)"><path id="SvgjsPath1405" d="M 0 0L 120 0L 120 40L 0 40Z" stroke="none" fill="none"></path><g id="SvgjsG1406"><text id="SvgjsText1407" font-family="微软雅黑" text-anchor="middle" font-size="20px" width="120px" fill="#323232" font-weight="700" align="middle" anchor="middle" family="微软雅黑" size="20px" weight="700" font-style="" opacity="1" y="4.5" transform="rotate(0)"><tspan id="SvgjsTspan1408" dy="25" x="60"><tspan id="SvgjsTspan1409" style="text-decoration:;">TCP Server</tspan></tspan></text></g></g><g id="SvgjsG1410" transform="translate(221.3045809404456,752.8620266503901)"><path id="SvgjsPath1411" d="M 0 4Q 0 0 4 0L 95 0Q 99 0 99 4L 99 52Q 99 56 95 56L 4 56Q 0 56 0 52Z" stroke="rgba(50,50,50,1)" stroke-width="2" fill-opacity="1" fill="#ffe6cc"></path><g id="SvgjsG1412"><text id="SvgjsText1413" font-family="微软雅黑" text-anchor="middle" font-size="16px" width="79px" fill="#323232" font-weight="400" align="middle" anchor="middle" family="微软雅黑" size="16px" weight="400" font-style="" opacity="1" y="15.6" transform="rotate(0)"><tspan id="SvgjsTspan1414" dy="20" x="49.5"><tspan id="SvgjsTspan1415" style="text-decoration:;">close()</tspan></tspan></text></g></g><g id="SvgjsG1416" transform="translate(221.3045809404456,672.2542572021482)"><path id="SvgjsPath1417" d="M 0 4Q 0 0 4 0L 95 0Q 99 0 99 4L 99 52Q 99 56 95 56L 4 56Q 0 56 0 52Z" stroke="rgba(50,50,50,1)" stroke-width="2" fill-opacity="1" fill="#ccffcc"></path><g id="SvgjsG1418"><text id="SvgjsText1419" font-family="微软雅黑" text-anchor="middle" font-size="16px" width="79px" fill="#323232" font-weight="400" align="middle" anchor="middle" family="微软雅黑" size="16px" weight="400" font-style="" opacity="1" y="15.6" transform="rotate(0)"><tspan id="SvgjsTspan1420" dy="20" x="49.5"><tspan id="SvgjsTspan1421" style="text-decoration:;">read()</tspan></tspan></text></g></g><g id="SvgjsG1422" transform="translate(221.3045809404456,515.2542572021486)"><path id="SvgjsPath1423" d="M 0 4Q 0 0 4 0L 95 0Q 99 0 99 4L 99 52Q 99 56 95 56L 4 56Q 0 56 0 52Z" stroke="rgba(50,50,50,1)" stroke-width="2" fill-opacity="1" fill="#ccffcc"></path><g id="SvgjsG1424"><text id="SvgjsText1425" font-family="微软雅黑" text-anchor="middle" font-size="16px" width="79px" fill="#323232" font-weight="400" align="middle" anchor="middle" family="微软雅黑" size="16px" weight="400" font-style="" opacity="1" y="15.6" transform="rotate(0)"><tspan id="SvgjsTspan1426" dy="20" x="49.5"><tspan id="SvgjsTspan1427" style="text-decoration:;">write()</tspan></tspan></text></g></g><g id="SvgjsG1428" transform="translate(577.4333968389824,846.7542572021482)"><path id="SvgjsPath1429" d="M 0 4Q 0 0 4 0L 95 0Q 99 0 99 4L 99 52Q 99 56 95 56L 4 56Q 0 56 0 52Z" stroke="rgba(50,50,50,1)" stroke-width="2" fill-opacity="1" fill="#ffe6cc"></path><g id="SvgjsG1430"><text id="SvgjsText1431" font-family="微软雅黑" text-anchor="middle" font-size="16px" width="79px" fill="#323232" font-weight="400" align="middle" anchor="middle" family="微软雅黑" size="16px" weight="400" font-style="" opacity="1" y="15.6" transform="rotate(0)"><tspan id="SvgjsTspan1432" dy="20" x="49.5"><tspan id="SvgjsTspan1433" style="text-decoration:;">close()</tspan></tspan></text></g></g><g id="SvgjsG1434"><path id="SvgjsPath1435" d="M270.8045809404456 219.01066745855863L270.8045809404456 247.76672158961276L270.8045809404456 247.76672158961276L270.8045809404456 276.5227757206669" stroke="#323232" stroke-width="2" fill="none" marker-end="url(#SvgjsMarker1436)"></path></g><g id="SvgjsG1438"><path id="SvgjsPath1439" d="M270.8045809404456 332.5227757206671L270.8045809404456 423.8885164614078L270.8045809404456 423.8885164614078L270.8045809404456 515.2542572021486" stroke="#323232" stroke-width="2" fill="none" marker-end="url(#SvgjsMarker1440)"></path></g><g id="SvgjsG1442"><path id="SvgjsPath1443" d="M221.3045809404456 700.2542572021482L191.3045809404456 700.2542572021482L191.3045809404456 543.2542572021484L221.3045809404456 543.2542572021484" stroke="#323232" stroke-width="2" fill="none" marker-end="url(#SvgjsMarker1444)"></path></g><g id="SvgjsG1446"><path id="SvgjsPath1447" d="M270.8045809404456 571.2542572021484L270.8045809404456 621.7542572021482L270.8045809404456 621.7542572021482L270.8045809404456 672.2542572021482" stroke="#323232" stroke-width="2" fill="none" marker-end="url(#SvgjsMarker1448)"></path></g><g id="SvgjsG1450"><path id="SvgjsPath1451" d="M270.8045809404456 728.2542572021482L270.8045809404456 740.5581419262692L270.8045809404456 740.5581419262692L270.8045809404456 752.8620266503901" stroke="#323232" stroke-width="2" fill="none" marker-end="url(#SvgjsMarker1452)"></path></g><g id="SvgjsG1454"><path id="SvgjsPath1455" d="M626.9333968389824 126.00425720214844L626.9333968389824 139.6816076294988L626.9333968389824 139.6816076294988L626.9333968389824 153.35895805684922" stroke="#323232" stroke-width="2" fill="none" marker-end="url(#SvgjsMarker1456)"></path></g><g id="SvgjsG1458"><path id="SvgjsPath1459" d="M626.9333968389824 209.35895805684916L626.9333968389824 227.06435335599446L626.9333968389824 227.06435335599446L626.9333968389824 244.76974865513972" stroke="#323232" stroke-width="2" fill="none" marker-end="url(#SvgjsMarker1460)"></path></g><g id="SvgjsG1462"><path id="SvgjsPath1463" d="M626.9333968389824 300.76974865514L626.9333968389824 373.76200292864434L626.9333968389824 373.76200292864434L626.9333968389824 446.75425720214855" stroke="#323232" stroke-width="2" fill="none" marker-end="url(#SvgjsMarker1464)"></path></g><g id="SvgjsG1466" transform="translate(577.4333968389824,638.2542572021482)"><path id="SvgjsPath1467" d="M 0 4Q 0 0 4 0L 95 0Q 99 0 99 4L 99 51Q 99 55 95 55L 4 55Q 0 55 0 51Z" stroke="rgba(50,50,50,1)" stroke-width="2" fill-opacity="1" fill="#ccffcc"></path><g id="SvgjsG1468"><text id="SvgjsText1469" font-family="微软雅黑" text-anchor="middle" font-size="16px" width="79px" fill="#323232" font-weight="400" align="middle" anchor="middle" family="微软雅黑" size="16px" weight="400" font-style="" opacity="1" y="15.1" transform="rotate(0)"><tspan id="SvgjsTspan1470" dy="20" x="49.5"><tspan id="SvgjsTspan1471" style="text-decoration:;">write()</tspan></tspan></text></g></g><g id="SvgjsG1472" transform="translate(577.4333968389824,547.713928778714)"><path id="SvgjsPath1473" d="M 0 4Q 0 0 4 0L 95 0Q 99 0 99 4L 99 51Q 99 55 95 55L 4 55Q 0 55 0 51Z" stroke="rgba(50,50,50,1)" stroke-width="2" fill-opacity="1" fill="#ccffcc"></path><g id="SvgjsG1474"><text id="SvgjsText1475" font-family="微软雅黑" text-anchor="middle" font-size="16px" width="79px" fill="#323232" font-weight="400" align="middle" anchor="middle" family="微软雅黑" size="16px" weight="400" font-style="" opacity="1" y="15.1" transform="rotate(0)"><tspan id="SvgjsTspan1476" dy="20" x="49.5"><tspan id="SvgjsTspan1477" style="text-decoration:;">read()</tspan></tspan></text></g></g><g id="SvgjsG1478"><path id="SvgjsPath1479" d="M626.9333968389824 502.75425720214855L626.9333968389824 525.2340929904312L626.9333968389824 525.2340929904312L626.9333968389824 547.713928778714" stroke="#323232" stroke-width="2" fill="none" marker-end="url(#SvgjsMarker1480)"></path></g><g id="SvgjsG1482"><path id="SvgjsPath1483" d="M626.9333968389824 602.7139287787138L626.9333968389824 620.484092990431L626.9333968389824 620.484092990431L626.9333968389824 638.2542572021482" stroke="#323232" stroke-width="2" fill="none" marker-end="url(#SvgjsMarker1484)"></path></g><g id="SvgjsG1486"><path id="SvgjsPath1487" d="M676.4333968389824 665.7542572021482L706.4333968389824 665.7542572021482L706.4333968389824 575.213928778714L676.4333968389824 575.213928778714" stroke="#323232" stroke-width="2" fill="none" marker-end="url(#SvgjsMarker1488)"></path></g><g id="SvgjsG1490"><path id="SvgjsPath1491" d="M626.9333968389824 693.2542572021482L626.9333968389824 770.0042572021482L626.9333968389824 770.0042572021482L626.9333968389824 846.7542572021482" stroke="#323232" stroke-width="2" fill="none" marker-end="url(#SvgjsMarker1492)"></path></g><g id="SvgjsG1494" transform="translate(689.6875369587062,79.2671469663963)"><path id="SvgjsPath1495" d="M 0 0L 75.79853362568281 0L 75.79853362568281 39.7435897435897L 0 39.7435897435897Z" stroke="none" fill="none"></path><g id="SvgjsG1496"><text id="SvgjsText1497" font-family="微软雅黑" text-anchor="middle" font-size="16px" width="76px" fill="#323232" font-weight="700" align="middle" anchor="middle" family="微软雅黑" size="16px" weight="700" font-style="" opacity="1" y="7.471794871794851" transform="rotate(0)"><tspan id="SvgjsTspan1498" dy="20" x="38"><tspan id="SvgjsTspan1499" style="text-decoration:;">CLOSED</tspan></tspan></text></g></g><g id="SvgjsG1500" transform="translate(122.52582581032686,284.8025208030191)"><path id="SvgjsPath1501" d="M 0 0L 89.48014569898112 0L 89.48014569898112 39.44050983529564L 0 39.44050983529564Z" stroke="none" fill="none"></path><g id="SvgjsG1502"><text id="SvgjsText1503" font-family="微软雅黑" text-anchor="middle" font-size="16px" width="90px" fill="#323232" font-weight="700" align="middle" anchor="middle" family="微软雅黑" size="16px" weight="700" font-style="" opacity="1" y="7.320254917647821" transform="rotate(0)"><tspan id="SvgjsTspan1504" dy="20" x="45"><tspan id="SvgjsTspan1505" style="text-decoration:;">SYN_SENT</tspan></tspan></text></g></g><g id="SvgjsG1506" transform="translate(687.3730193319964,255.54308599488337)"><path id="SvgjsPath1507" d="M 0 0L 66.24999999999989 0L 66.24999999999989 34.77777777777774L 0 34.77777777777774Z" stroke="none" fill="none"></path><g id="SvgjsG1508"><text id="SvgjsText1509" font-family="微软雅黑" text-anchor="middle" font-size="16px" width="67px" fill="#323232" font-weight="700" align="middle" anchor="middle" family="微软雅黑" size="16px" weight="700" font-style="" opacity="1" y="4.988888888888871" transform="rotate(0)"><tspan id="SvgjsTspan1510" dy="20" x="33.5"><tspan id="SvgjsTspan1511" style="text-decoration:;">LISENT</tspan></tspan></text></g></g><g id="SvgjsG1512" transform="translate(662.8396523535861,319.6062500681633)"><path id="SvgjsPath1513" d="M 0 0L 91.59691728862174 0L 91.59691728862174 39.64800713398512L 0 39.64800713398512Z" stroke="none" fill="none"></path><g id="SvgjsG1514"><text id="SvgjsText1515" font-family="微软雅黑" text-anchor="middle" font-size="16px" width="92px" fill="#323232" font-weight="700" align="middle" anchor="middle" family="微软雅黑" size="16px" weight="700" font-style="" opacity="1" y="7.424003566992559" transform="rotate(0)"><tspan id="SvgjsTspan1516" dy="20" x="46"><tspan id="SvgjsTspan1517" style="text-decoration:;">SYN_RCVD</tspan></tspan></text></g></g><g id="SvgjsG1518"><path id="SvgjsPath1519" d="M624.6969807942703 350.0875905354819L278.03031412760413 375.08759053548187" stroke="#323232" stroke-width="2" fill="none" marker-end="url(#SvgjsMarker1520)"></path></g><g id="SvgjsG1522"><path id="SvgjsPath1523" d="M277.9469807942707 392.75425720214884L618.5061371728715 420.08759053548187" stroke="#323232" stroke-width="2" fill="none" marker-end="url(#SvgjsMarker1524)"></path></g><g id="SvgjsG1526"><path id="SvgjsPath1527" d="M320.3045809404456 304.5227757206669L618.5061371728715 331.7542572021485" stroke="#323232" stroke-width="2" fill="none" marker-end="url(#SvgjsMarker1528)"></path></g><g id="SvgjsG1530" transform="translate(654.597099439917,400.50425720214844)"><path id="SvgjsPath1531" d="M 0 0L 117.91920182211334 0L 117.91920182211334 30.09380744086627L 0 30.09380744086627Z" stroke="none" fill="none"></path><g id="SvgjsG1532"><text id="SvgjsText1533" font-family="微软雅黑" text-anchor="middle" font-size="16px" width="118px" fill="#323232" font-weight="700" align="middle" anchor="middle" family="微软雅黑" size="16px" weight="700" font-style="" opacity="1" y="2.646903720433136" transform="rotate(0)"><tspan id="SvgjsTspan1534" dy="20" x="59"><tspan id="SvgjsTspan1535" style="text-decoration:;">ESTABLISHED</tspan></tspan></text></g></g><g id="SvgjsG1536" transform="translate(139.22577427916494,366.92533058395037)"><path id="SvgjsPath1537" d="M 0 0L 116.61597227234947 0L 116.61597227234947 36.07892661819807L 0 36.07892661819807Z" stroke="none" fill="none"></path><g id="SvgjsG1538"><text id="SvgjsText1539" font-family="微软雅黑" text-anchor="middle" font-size="16px" width="117px" fill="#323232" font-weight="700" align="middle" anchor="middle" family="微软雅黑" size="16px" weight="700" font-style="" opacity="1" y="5.639463309099034" transform="rotate(0)"><tspan id="SvgjsTspan1540" dy="20" x="58.5"><tspan id="SvgjsTspan1541" style="text-decoration:;">ESTABLISHED</tspan></tspan></text></g></g><g id="SvgjsG1542" transform="translate(108.2988243638124,763.3713564167309)"><path id="SvgjsPath1543" d="M 0 0L 89.9158088460955 0L 89.9158088460955 34.98134046731843L 0 34.98134046731843Z" stroke="none" fill="none"></path><g id="SvgjsG1544"><text id="SvgjsText1545" font-family="微软雅黑" text-anchor="middle" font-size="16px" width="90px" fill="#323232" font-weight="700" align="middle" anchor="middle" family="微软雅黑" size="16px" weight="700" font-style="" opacity="1" y="5.090670233659216" transform="rotate(0)"><tspan id="SvgjsTspan1546" dy="20" x="45"><tspan id="SvgjsTspan1547" style="text-decoration:;">FIN_WAIT1</tspan></tspan></text></g></g><g id="SvgjsG1548"><path id="SvgjsPath1549" d="M273.29546564275563 916.2997117476027L613.1136474609375 938.7542572021482" stroke="#323232" stroke-width="2" fill="none" marker-end="url(#SvgjsMarker1550)"></path></g><g id="SvgjsG1552"><path id="SvgjsPath1553" d="M624.0046731019626 826.0106674585579L277.33800643529645 851.0106674585579" stroke="#323232" stroke-width="2" fill="none" marker-end="url(#SvgjsMarker1554)"></path></g><g id="SvgjsG1556"><path id="SvgjsPath1557" d="M626.9333968389824 902.7542572021482L626.9333968389824 961.7542572021482" stroke="#323232" stroke-width="2" fill="none" marker-end="url(#SvgjsMarker1558)"></path></g><g id="SvgjsG1560"><path id="SvgjsPath1561" d="M320.3045809404456 543.2542572021484L577.4333968389824 575.213928778714" stroke="#323232" stroke-width="2" fill="none" marker-end="url(#SvgjsMarker1562)"></path></g><g id="SvgjsG1564"><path id="SvgjsPath1565" d="M577.4333968389824 665.7542572021482L320.3045809404456 700.2542572021482" stroke="#323232" stroke-width="2" fill="none" marker-end="url(#SvgjsMarker1566)"></path></g><g id="SvgjsG1568" transform="translate(139.6182913438898,169.62131950182788)"><path id="SvgjsPath1569" d="M 0 0L 75.79853362568281 0L 75.79853362568281 39.7435897435897L 0 39.7435897435897Z" stroke="none" fill="none"></path><g id="SvgjsG1570"><text id="SvgjsText1571" font-family="微软雅黑" text-anchor="middle" font-size="16px" width="76px" fill="#323232" font-weight="700" align="middle" anchor="middle" family="微软雅黑" size="16px" weight="700" font-style="" opacity="1" y="7.471794871794851" transform="rotate(0)"><tspan id="SvgjsTspan1572" dy="20" x="38"><tspan id="SvgjsTspan1573" style="text-decoration:;">CLOSED</tspan></tspan></text></g></g><g id="SvgjsG1574"><path id="SvgjsPath1575" d="M320.3045809404456 780.8620266503901L625.1136474609375 805.7542572021482" stroke="#323232" stroke-width="2" fill="none" marker-end="url(#SvgjsMarker1576)"></path></g><g id="SvgjsG1578" transform="translate(660.4493403104141,781.1895834014964)"><path id="SvgjsPath1579" d="M 0 0L 106.14027753801656 0L 106.14027753801656 31.81467380065203L 0 31.81467380065203Z" stroke="none" fill="none"></path><g id="SvgjsG1580"><text id="SvgjsText1581" font-family="微软雅黑" text-anchor="middle" font-size="16px" width="107px" fill="#323232" font-weight="700" align="middle" anchor="middle" family="微软雅黑" size="16px" weight="700" font-style="" opacity="1" y="3.5073369003260155" transform="rotate(0)"><tspan id="SvgjsTspan1582" dy="20" x="53.5"><tspan id="SvgjsTspan1583" style="text-decoration:;">CLOSE_WAIT</tspan></tspan></text></g></g><g id="SvgjsG1584" transform="translate(682.6004924159348,854.8296447300133)"><path id="SvgjsPath1585" d="M 0 0L 89.9158088460955 0L 89.9158088460955 34.98134046731843L 0 34.98134046731843Z" stroke="none" fill="none"></path><g id="SvgjsG1586"><text id="SvgjsText1587" font-family="微软雅黑" text-anchor="middle" font-size="16px" width="90px" fill="#323232" font-weight="700" align="middle" anchor="middle" family="微软雅黑" size="16px" weight="700" font-style="" opacity="1" y="5.090670233659216" transform="rotate(0)"><tspan id="SvgjsTspan1588" dy="20" x="45"><tspan id="SvgjsTspan1589" style="text-decoration:;">LAST_ACK</tspan></tspan></text></g></g><g id="SvgjsG1590"><path id="SvgjsPath1591" d="M577.4333968389824 874.7542572021482L276.0227383700284 898.1178935657845" stroke="#323232" stroke-width="2" fill="none" marker-end="url(#SvgjsMarker1592)"></path></g><g id="SvgjsG1594" transform="translate(165.89098267987367,838.1895382349127)"><path id="SvgjsPath1595" d="M 0 0L 89.9158088460955 0L 89.9158088460955 34.98134046731843L 0 34.98134046731843Z" stroke="none" fill="none"></path><g id="SvgjsG1596"><text id="SvgjsText1597" font-family="微软雅黑" text-anchor="middle" font-size="16px" width="90px" fill="#323232" font-weight="700" align="middle" anchor="middle" family="微软雅黑" size="16px" weight="700" font-style="" opacity="1" y="5.090670233659216" transform="rotate(0)"><tspan id="SvgjsTspan1598" dy="20" x="45"><tspan id="SvgjsTspan1599" style="text-decoration:;">FIN_WAIT2</tspan></tspan></text></g></g><g id="SvgjsG1600" transform="translate(162.6136474609375,892.284288421668)"><path id="SvgjsPath1601" d="M 0 0L 101.05553120351578 0L 101.05553120351578 30.719968780480485L 0 30.719968780480485Z" stroke="none" fill="none"></path><g id="SvgjsG1602"><text id="SvgjsText1603" font-family="微软雅黑" text-anchor="middle" font-size="16px" width="102px" fill="#323232" font-weight="700" align="middle" anchor="middle" family="微软雅黑" size="16px" weight="700" font-style="" opacity="1" y="2.9599843902402427" transform="rotate(0)"><tspan id="SvgjsTspan1604" dy="20" x="51"><tspan id="SvgjsTspan1605" style="text-decoration:;">TIME_WAIT</tspan></tspan></text></g></g><g id="SvgjsG1606"><path id="SvgjsPath1607" d="M270.8045809404456 808.8620266503901L270.8045809404456 962.6633481112391" stroke="#323232" stroke-width="2" fill="none" marker-end="url(#SvgjsMarker1608)"></path></g><g id="SvgjsG1610"><path id="SvgjsPath1611" d="M68.8636474609375 509.25425720214844L827.6136474609375 509.25425720214844" stroke-dasharray="8,5" stroke="#323232" stroke-width="2" fill="none"></path></g><g id="SvgjsG1612"><path id="SvgjsPath1613" d="M68.8636474609375 440.50425720214844L827.6136474609375 440.50425720214844" stroke-dasharray="8,5" stroke="#323232" stroke-width="2" fill="none"></path></g><g id="SvgjsG1614"><path id="SvgjsPath1615" d="M68.8636474609375 236.75425720214844L827.6136474609375 236.75425720214844" stroke-dasharray="8,5" stroke="#323232" stroke-width="2" fill="none"></path></g><g id="SvgjsG1616" transform="translate(28.256181029401404,326.925293060974)"><path id="SvgjsPath1617" d="M 0 0L 120 0L 120 40L 0 40Z" stroke="none" fill="none"></path><g id="SvgjsG1618"><text id="SvgjsText1619" font-family="微软雅黑" text-anchor="middle" font-size="20px" width="120px" fill="#323232" font-weight="700" align="middle" anchor="middle" family="微软雅黑" size="20px" weight="700" font-style="" opacity="1" y="-8" transform="rotate(0)"><tspan id="SvgjsTspan1620" dy="25" x="60"><tspan id="SvgjsTspan1621" style="text-decoration:;">TCP </tspan></tspan><tspan id="SvgjsTspan1622" dy="25" x="60"><tspan id="SvgjsTspan1623" style="text-decoration:;">三次握手</tspan></tspan></text></g></g><g id="SvgjsG1624" transform="translate(31.849946487212392,602.7140395462445)"><path id="SvgjsPath1625" d="M 0 0L 120 0L 120 40L 0 40Z" stroke="none" fill="none"></path><g id="SvgjsG1626"><text id="SvgjsText1627" font-family="微软雅黑" text-anchor="middle" font-size="20px" width="120px" fill="#323232" font-weight="700" align="middle" anchor="middle" family="微软雅黑" size="20px" weight="700" font-style="" opacity="1" y="-8" transform="rotate(0)"><tspan id="SvgjsTspan1628" dy="25" x="60"><tspan id="SvgjsTspan1629" style="text-decoration:;">TCP </tspan></tspan><tspan id="SvgjsTspan1630" dy="25" x="60"><tspan id="SvgjsTspan1631" style="text-decoration:;">数据传输</tspan></tspan></text></g></g><g id="SvgjsG1632" transform="translate(25.003717677424504,852.2778987220145)"><path id="SvgjsPath1633" d="M 0 0L 120 0L 120 40L 0 40Z" stroke="none" fill="none"></path><g id="SvgjsG1634"><text id="SvgjsText1635" font-family="微软雅黑" text-anchor="middle" font-size="20px" width="120px" fill="#323232" font-weight="700" align="middle" anchor="middle" family="微软雅黑" size="20px" weight="700" font-style="" opacity="1" y="-8" transform="rotate(0)"><tspan id="SvgjsTspan1636" dy="25" x="60"><tspan id="SvgjsTspan1637" style="text-decoration:;">TCP </tspan></tspan><tspan id="SvgjsTspan1638" dy="25" x="60"><tspan id="SvgjsTspan1639" style="text-decoration:;">四次挥手</tspan></tspan></text></g></g><g id="SvgjsG1640"><path id="SvgjsPath1641" d="M60.1136474609375 741.7542572021484L818.8636474609375 741.7542572021484" stroke-dasharray="8,5" stroke="#323232" stroke-width="2" fill="none"></path></g><g id="SvgjsG1642" transform="matrix(0.9961946980917455,0.08715574274765817,-0.08715574274765817,0.9961946980917455,375.44061021554216,277.61134887564936)"><path id="SvgjsPath1643" d="M 0 0L 120 0L 120 40L 0 40Z" stroke="none" fill="none"></path><g id="SvgjsG1644"><text id="SvgjsText1645" font-family="微软雅黑" text-anchor="middle" font-size="13px" width="120px" fill="#323232" font-weight="700" align="middle" anchor="middle" family="微软雅黑" size="13px" weight="700" font-style="" opacity="1" y="10.05" transform="rotate(0)"><tspan id="SvgjsTspan1646" dy="16" x="60"><tspan id="SvgjsTspan1647" style="text-decoration:;">SYN seq=x</tspan></tspan></text></g></g><g id="SvgjsG1648" transform="matrix(0.9961946980917455,-0.08715574274765832,0.08715574274765832,0.9961946980917455,350.16648946720005,337.6008356824833)"><path id="SvgjsPath1649" d="M 0 0L 168.76213794388661 0L 168.76213794388661 33.484928860508376L 0 33.484928860508376Z" stroke="none" fill="none"></path><g id="SvgjsG1650"><text id="SvgjsText1651" font-family="微软雅黑" text-anchor="middle" font-size="13px" width="169px" fill="#323232" font-weight="700" align="middle" anchor="middle" family="微软雅黑" size="13px" weight="700" font-style="" opacity="1" y="6.792464430254188" transform="rotate(0)"><tspan id="SvgjsTspan1652" dy="16" x="84.5"><tspan id="SvgjsTspan1653" style="text-decoration:;">SYN seq=y, ACK=x+1</tspan></tspan></text></g></g><g id="SvgjsG1654" transform="matrix(0.9961946980917455,0.08715574274765817,-0.08715574274765817,0.9961946980917455,377.2773411725734,369.99941039908686)"><path id="SvgjsPath1655" d="M 0 0L 120 0L 120 40L 0 40Z" stroke="none" fill="none"></path><g id="SvgjsG1656"><text id="SvgjsText1657" font-family="微软雅黑" text-anchor="middle" font-size="13px" width="120px" fill="#323232" font-weight="700" align="middle" anchor="middle" family="微软雅黑" size="13px" weight="700" font-style="" opacity="1" y="10.05" transform="rotate(0)"><tspan id="SvgjsTspan1658" dy="16" x="60"><tspan id="SvgjsTspan1659" style="text-decoration:;">ACK=y+1</tspan></tspan></text></g></g><g id="SvgjsG1660" transform="matrix(0.9961946980917455,0.08715574274765817,-0.08715574274765817,0.9961946980917455,377.65712082801485,753.1980591256847)"><path id="SvgjsPath1661" d="M 0 0L 133.10300279475558 0L 133.10300279475558 40.92838689804739L 0 40.92838689804739Z" stroke="none" fill="none"></path><g id="SvgjsG1662"><text id="SvgjsText1663" font-family="微软雅黑" text-anchor="middle" font-size="13px" width="134px" fill="#323232" font-weight="700" align="middle" anchor="middle" family="微软雅黑" size="13px" weight="700" font-style="" opacity="1" y="10.514193449023697" transform="rotate(0)"><tspan id="SvgjsTspan1664" dy="16" x="67"><tspan id="SvgjsTspan1665" style="text-decoration:;">FIN seq=m, ACK=n</tspan></tspan></text></g></g><g id="SvgjsG1666" transform="matrix(0.9961946980917455,-0.08715574274765832,0.08715574274765832,0.9961946980917455,367.7398419314171,812.0611268725559)"><path id="SvgjsPath1667" d="M 0 0L 120 0L 120 40L 0 40Z" stroke="none" fill="none"></path><g id="SvgjsG1668"><text id="SvgjsText1669" font-family="微软雅黑" text-anchor="middle" font-size="13px" width="120px" fill="#323232" font-weight="700" align="middle" anchor="middle" family="微软雅黑" size="13px" weight="700" font-style="" opacity="1" y="10.05" transform="rotate(0)"><tspan id="SvgjsTspan1670" dy="16" x="60"><tspan id="SvgjsTspan1671" style="text-decoration:;">ACK=m+1</tspan></tspan></text></g></g><g id="SvgjsG1672" transform="matrix(0.9961946980917455,-0.08715574274765832,0.08715574274765832,0.9961946980917455,374.17090272243274,857.5834047045871)"><path id="SvgjsPath1673" d="M 0 0L 120 0L 120 40L 0 40Z" stroke="none" fill="none"></path><g id="SvgjsG1674"><text id="SvgjsText1675" font-family="微软雅黑" text-anchor="middle" font-size="13px" width="120px" fill="#323232" font-weight="700" align="middle" anchor="middle" family="微软雅黑" size="13px" weight="700" font-style="" opacity="1" y="10.05" transform="rotate(0)"><tspan id="SvgjsTspan1676" dy="16" x="60"><tspan id="SvgjsTspan1677" style="text-decoration:;">FIN seq=n</tspan></tspan></text></g></g><g id="SvgjsG1678" transform="matrix(0.9961946980917455,0.08715574274765817,-0.08715574274765817,0.9961946980917455,371.2260716413234,889.6201379381494)"><path id="SvgjsPath1679" d="M 0 0L 120 0L 120 40L 0 40Z" stroke="none" fill="none"></path><g id="SvgjsG1680"><text id="SvgjsText1681" font-family="微软雅黑" text-anchor="middle" font-size="13px" width="120px" fill="#323232" font-weight="700" align="middle" anchor="middle" family="微软雅黑" size="13px" weight="700" font-style="" opacity="1" y="10.05" transform="rotate(0)"><tspan id="SvgjsTspan1682" dy="16" x="60"><tspan id="SvgjsTspan1683" style="text-decoration:;">ACK=n+1</tspan></tspan></text></g></g><g id="SvgjsG1684" transform="translate(682.6004924159348,454.75425720214855)"><path id="SvgjsPath1685" d="M 0 0L 120 0L 120 40L 0 40Z" stroke="none" fill="none"></path><g id="SvgjsG1686"><text id="SvgjsText1687" font-family="微软雅黑" text-anchor="middle" font-size="20px" width="120px" fill="#323232" font-weight="700" align="middle" anchor="middle" family="微软雅黑" size="20px" weight="700" font-style="" opacity="1" y="4.5" transform="rotate(0)"><tspan id="SvgjsTspan1688" dy="25" x="60"><tspan id="SvgjsTspan1689" style="text-decoration:;">应用程序阻塞</tspan></tspan></text></g></g><g id="SvgjsG1690" transform="translate(664.0166895222158,921.5084382733726)"><path id="SvgjsPath1691" d="M 0 0L 75.79853362568281 0L 75.79853362568281 39.7435897435897L 0 39.7435897435897Z" stroke="none" fill="none"></path><g id="SvgjsG1692"><text id="SvgjsText1693" font-family="微软雅黑" text-anchor="middle" font-size="16px" width="76px" fill="#323232" font-weight="700" align="middle" anchor="middle" family="微软雅黑" size="16px" weight="700" font-style="" opacity="1" y="7.471794871794851" transform="rotate(0)"><tspan id="SvgjsTspan1694" dy="20" x="38"><tspan id="SvgjsTspan1695" style="text-decoration:;">CLOSED</tspan></tspan></text></g></g><g id="SvgjsG1696" transform="translate(649.5580978929271,794.1346370588599)"><path id="SvgjsPath1697" d="M 0 0L 120 0L 120 40L 0 40Z" stroke="none" fill="none"></path><g id="SvgjsG1698"><text id="SvgjsText1699" font-family="微软雅黑" text-anchor="middle" font-size="13px" width="120px" fill="#323232" font-weight="400" align="middle" anchor="middle" family="微软雅黑" size="13px" weight="400" font-style="" opacity="1" y="10.05" transform="rotate(0)"><tspan id="SvgjsTspan1700" dy="16" x="60"><tspan id="SvgjsTspan1701" style="text-decoration:;">read return 0</tspan></tspan></text></g></g><g id="SvgjsG1702" transform="translate(88.20607902156812,780.5773385035371)"><path id="SvgjsPath1703" d="M 0 0L 120 0L 120 40L 0 40Z" stroke="none" fill="none"></path><g id="SvgjsG1704"><text id="SvgjsText1705" font-family="微软雅黑" text-anchor="middle" font-size="13px" width="120px" fill="#323232" font-weight="400" align="middle" anchor="middle" family="微软雅黑" size="13px" weight="400" font-style="" opacity="1" y="10.05" transform="rotate(0)"><tspan id="SvgjsTspan1706" dy="16" x="60"><tspan id="SvgjsTspan1707" style="text-decoration:;">（active close）</tspan></tspan></text></g></g><g id="SvgjsG1708" transform="translate(754.6455800473026,777.1063173127524)"><path id="SvgjsPath1709" d="M 0 0L 120 0L 120 40L 0 40Z" stroke="none" fill="none"></path><g id="SvgjsG1710"><text id="SvgjsText1711" font-family="微软雅黑" text-anchor="middle" font-size="13px" width="120px" fill="#323232" font-weight="400" align="middle" anchor="middle" family="微软雅黑" size="13px" weight="400" font-style="" opacity="1" y="10.05" transform="rotate(0)"><tspan id="SvgjsTspan1712" dy="16" x="60"><tspan id="SvgjsTspan1713" style="text-decoration:;">（paasive close）</tspan></tspan></text></g></g></svg>