<svg id="SvgjsSvg1006" width="567.7201538085938" height="711.3551025390625" xmlns="http://www.w3.org/2000/svg" version="1.1" xmlns:xlink="http://www.w3.org/1999/xlink" xmlns:svgjs="http://svgjs.com/svgjs"><defs id="SvgjsDefs1007"><marker id="SvgjsMarker1058" markerWidth="16" markerHeight="12" refX="16" refY="6" viewBox="0 0 16 12" orient="auto" markerUnits="userSpaceOnUse" stroke-dasharray="0,0"><path id="SvgjsPath1059" d="M0,2 L14,6 L0,11 L0,2" fill="#323232" stroke="#323232" stroke-width="2"></path></marker><marker id="SvgjsMarker1062" markerWidth="16" markerHeight="12" refX="16" refY="6" viewBox="0 0 16 12" orient="auto" markerUnits="userSpaceOnUse" stroke-dasharray="0,0"><path id="SvgjsPath1063" d="M0,2 L14,6 L0,11 L0,2" fill="#323232" stroke="#323232" stroke-width="2"></path></marker><marker id="SvgjsMarker1066" markerWidth="16" markerHeight="12" refX="16" refY="6" viewBox="0 0 16 12" orient="auto" markerUnits="userSpaceOnUse" stroke-dasharray="0,0"><path id="SvgjsPath1067" d="M0,2 L14,6 L0,11 L0,2" fill="#323232" stroke="#323232" stroke-width="2"></path></marker><marker id="SvgjsMarker1082" markerWidth="16" markerHeight="12" refX="16" refY="6" viewBox="0 0 16 12" orient="auto" markerUnits="userSpaceOnUse" stroke-dasharray="0,0"><path id="SvgjsPath1083" d="M0,2 L14,6 L0,11 L0,2" fill="#323232" stroke="#323232" stroke-width="2"></path></marker><marker id="SvgjsMarker1086" markerWidth="16" markerHeight="12" refX="16" refY="6" viewBox="0 0 16 12" orient="auto" markerUnits="userSpaceOnUse" stroke-dasharray="0,0"><path id="SvgjsPath1087" d="M0,2 L14,6 L0,11 L0,2" fill="#323232" stroke="#323232" stroke-width="2"></path></marker><marker id="SvgjsMarker1090" markerWidth="16" markerHeight="12" refX="16" refY="6" viewBox="0 0 16 12" orient="auto" markerUnits="userSpaceOnUse" stroke-dasharray="0,0"><path id="SvgjsPath1091" d="M0,2 L14,6 L0,11 L0,2" fill="#323232" stroke="#323232" stroke-width="2"></path></marker><marker id="SvgjsMarker1094" markerWidth="16" markerHeight="12" refX="16" refY="6" viewBox="0 0 16 12" orient="auto" markerUnits="userSpaceOnUse" stroke-dasharray="0,0"><path id="SvgjsPath1095" d="M0,2 L14,6 L0,11 L0,2" fill="#323232" stroke="#323232" stroke-width="2"></path></marker><marker id="SvgjsMarker1104" markerWidth="16" markerHeight="12" refX="16" refY="6" viewBox="0 0 16 12" orient="auto" markerUnits="userSpaceOnUse" stroke-dasharray="0,0"><path id="SvgjsPath1105" d="M0,2 L14,6 L0,11 L0,2" fill="#323232" stroke="#323232" stroke-width="2"></path></marker><marker id="SvgjsMarker1112" markerWidth="16" markerHeight="12" refX="16" refY="6" viewBox="0 0 16 12" orient="auto" markerUnits="userSpaceOnUse" stroke-dasharray="0,0"><path id="SvgjsPath1113" d="M0,2 L14,6 L0,11 L0,2" fill="#323232" stroke="#323232" stroke-width="2"></path></marker><marker id="SvgjsMarker1120" markerWidth="16" markerHeight="12" refX="16" refY="6" viewBox="0 0 16 12" orient="auto" markerUnits="userSpaceOnUse" stroke-dasharray="0,0"><path id="SvgjsPath1121" d="M0,2 L14,6 L0,11 L0,2" fill="#323232" stroke="#323232" stroke-width="2"></path></marker><marker id="SvgjsMarker1124" markerWidth="16" markerHeight="12" refX="16" refY="6" viewBox="0 0 16 12" orient="auto" markerUnits="userSpaceOnUse" stroke-dasharray="0,0"><path id="SvgjsPath1125" d="M0,2 L14,6 L0,11 L0,2" fill="#323232" stroke="#323232" stroke-width="2"></path></marker></defs><g id="SvgjsG1008" transform="translate(56.6028750078284,175.51067508795325)"><path id="SvgjsPath1009" d="M 0 4Q 0 0 4 0L 95 0Q 99 0 99 4L 99 52Q 99 56 95 56L 4 56Q 0 56 0 52Z" stroke="rgba(50,50,50,1)" stroke-width="2" fill-opacity="1" fill="#cce5ff"></path><g id="SvgjsG1010"><text id="SvgjsText1011" font-family="微软雅黑" text-anchor="middle" font-size="16px" width="79px" fill="#323232" font-weight="400" align="middle" anchor="middle" family="微软雅黑" size="16px" weight="400" font-style="" opacity="1" y="15.6" transform="rotate(0)"><tspan id="SvgjsTspan1012" dy="20" x="49.5"><tspan id="SvgjsTspan1013" style="text-decoration:;">socket()</tspan></tspan></text></g></g><g id="SvgjsG1014" transform="translate(56.6028750078284,301.52278335006145)"><path id="SvgjsPath1015" d="M 0 4Q 0 0 4 0L 95 0Q 99 0 99 4L 99 52Q 99 56 95 56L 4 56Q 0 56 0 52Z" stroke="rgba(50,50,50,1)" stroke-width="2" fill-opacity="1" fill="#ccffcc"></path><g id="SvgjsG1016"><text id="SvgjsText1017" font-family="微软雅黑" text-anchor="middle" font-size="16px" width="79px" fill="#323232" font-weight="400" align="middle" anchor="middle" family="微软雅黑" size="16px" weight="400" font-style="" opacity="1" y="15.6" transform="rotate(0)"><tspan id="SvgjsTspan1018" dy="20" x="49.5"><tspan id="SvgjsTspan1019" style="text-decoration:;">sendto()</tspan></tspan></text></g></g><g id="SvgjsG1020" transform="translate(412.7316909063652,153.35896568624378)"><path id="SvgjsPath1021" d="M 0 4Q 0 0 4 0L 95 0Q 99 0 99 4L 99 52Q 99 56 95 56L 4 56Q 0 56 0 52Z" stroke="rgba(50,50,50,1)" stroke-width="2" fill-opacity="1" fill="#cce5ff"></path><g id="SvgjsG1022"><text id="SvgjsText1023" font-family="微软雅黑" text-anchor="middle" font-size="16px" width="79px" fill="#323232" font-weight="400" align="middle" anchor="middle" family="微软雅黑" size="16px" weight="400" font-style="" opacity="1" y="15.6" transform="rotate(0)"><tspan id="SvgjsTspan1024" dy="20" x="49.5"><tspan id="SvgjsTspan1025" style="text-decoration:;">bind()</tspan></tspan></text></g></g><g id="SvgjsG1026" transform="translate(411.1341270807661,245.76975628453425)"><path id="SvgjsPath1027" d="M 0 4Q 0 0 4 0L 98.19512765119816 0Q 102.19512765119816 0 102.19512765119816 4L 102.19512765119816 50.00156024378606Q 102.19512765119816 54.00156024378606 98.19512765119816 54.00156024378606L 4 54.00156024378606Q 0 54.00156024378606 0 50.00156024378606Z" stroke="rgba(50,50,50,1)" stroke-width="2" fill-opacity="1" fill="#ccffcc"></path><g id="SvgjsG1028"><text id="SvgjsText1029" font-family="微软雅黑" text-anchor="middle" font-size="16px" width="83px" fill="#323232" font-weight="400" align="middle" anchor="middle" family="微软雅黑" size="16px" weight="400" font-style="" opacity="1" y="14.60078012189303" transform="rotate(0)"><tspan id="SvgjsTspan1030" dy="20" x="51.5"><tspan id="SvgjsTspan1031" style="text-decoration:;">recvfrom()</tspan></tspan></text></g></g><g id="SvgjsG1032" transform="translate(412.7316909063652,70.00426483154303)"><path id="SvgjsPath1033" d="M 0 4Q 0 0 4 0L 95 0Q 99 0 99 4L 99 52Q 99 56 95 56L 4 56Q 0 56 0 52Z" stroke="rgba(50,50,50,1)" stroke-width="2" fill-opacity="1" fill="#cce5ff"></path><g id="SvgjsG1034"><text id="SvgjsText1035" font-family="微软雅黑" text-anchor="middle" font-size="16px" width="79px" fill="#323232" font-weight="400" align="middle" anchor="middle" family="微软雅黑" size="16px" weight="400" font-style="" opacity="1" y="15.6" transform="rotate(0)"><tspan id="SvgjsTspan1036" dy="20" x="49.5"><tspan id="SvgjsTspan1037" style="text-decoration:;">socket()</tspan></tspan></text></g></g><g id="SvgjsG1038" transform="translate(47.41194152832031,131.51067508795325)"><path id="SvgjsPath1039" d="M 0 0L 120 0L 120 40L 0 40Z" stroke="none" fill="none"></path><g id="SvgjsG1040"><text id="SvgjsText1041" font-family="微软雅黑" text-anchor="middle" font-size="20px" width="120px" fill="#323232" font-weight="700" align="middle" anchor="middle" family="微软雅黑" size="20px" weight="700" font-style="" opacity="1" y="4.5" transform="rotate(0)"><tspan id="SvgjsTspan1042" dy="25" x="60"><tspan id="SvgjsTspan1043" style="text-decoration:;">UDP Client</tspan></tspan></text></g></g><g id="SvgjsG1044" transform="translate(400.6341270807661,25.004264831543026)"><path id="SvgjsPath1045" d="M 0 0L 120 0L 120 40L 0 40Z" stroke="none" fill="none"></path><g id="SvgjsG1046"><text id="SvgjsText1047" font-family="微软雅黑" text-anchor="middle" font-size="20px" width="120px" fill="#323232" font-weight="700" align="middle" anchor="middle" family="微软雅黑" size="20px" weight="700" font-style="" opacity="1" y="4.5" transform="rotate(0)"><tspan id="SvgjsTspan1048" dy="25" x="60"><tspan id="SvgjsTspan1049" style="text-decoration:;">UDP Server</tspan></tspan></text></g></g><g id="SvgjsG1050" transform="translate(56.6028750078284,630.3620342797847)"><path id="SvgjsPath1051" d="M 0 4Q 0 0 4 0L 95 0Q 99 0 99 4L 99 52Q 99 56 95 56L 4 56Q 0 56 0 52Z" stroke="rgba(50,50,50,1)" stroke-width="2" fill-opacity="1" fill="#cce5ff"></path><g id="SvgjsG1052"><text id="SvgjsText1053" font-family="微软雅黑" text-anchor="middle" font-size="16px" width="79px" fill="#323232" font-weight="400" align="middle" anchor="middle" family="微软雅黑" size="16px" weight="400" font-style="" opacity="1" y="15.6" transform="rotate(0)"><tspan id="SvgjsTspan1054" dy="20" x="49.5"><tspan id="SvgjsTspan1055" style="text-decoration:;">close()</tspan></tspan></text></g></g><g id="SvgjsG1056"><path id="SvgjsPath1057" d="M106.1028750078284 231.51067508795313L106.1028750078284 266.5167292190073L106.1028750078284 266.5167292190073L106.1028750078284 301.52278335006145" stroke="#323232" stroke-width="2" fill="none" marker-end="url(#SvgjsMarker1058)"></path></g><g id="SvgjsG1060"><path id="SvgjsPath1061" d="M462.2316909063652 126.00426483154297L462.2316909063652 139.68161525889337L462.2316909063652 139.68161525889337L462.2316909063652 153.35896568624378" stroke="#323232" stroke-width="2" fill="none" marker-end="url(#SvgjsMarker1062)"></path></g><g id="SvgjsG1064"><path id="SvgjsPath1065" d="M462.2316909063652 209.35896568624366L462.2316909063652 227.564360985389L462.2316909063652 227.564360985389L462.2316909063652 245.76975628453425" stroke="#323232" stroke-width="2" fill="none" marker-end="url(#SvgjsMarker1066)"></path></g><g id="SvgjsG1068" transform="translate(55.00531118222932,508.5860401164432)"><path id="SvgjsPath1069" d="M 0 4Q 0 0 4 0L 98.19512765119816 0Q 102.19512765119816 0 102.19512765119816 4L 102.19512765119816 50.00156024378606Q 102.19512765119816 54.00156024378606 98.19512765119816 54.00156024378606L 4 54.00156024378606Q 0 54.00156024378606 0 50.00156024378606Z" stroke="rgba(50,50,50,1)" stroke-width="2" fill-opacity="1" fill="#ccffcc"></path><g id="SvgjsG1070"><text id="SvgjsText1071" font-family="微软雅黑" text-anchor="middle" font-size="16px" width="83px" fill="#323232" font-weight="400" align="middle" anchor="middle" family="微软雅黑" size="16px" weight="400" font-style="" opacity="1" y="14.60078012189303" transform="rotate(0)"><tspan id="SvgjsTspan1072" dy="20" x="51.5"><tspan id="SvgjsTspan1073" style="text-decoration:;">recvfrom()</tspan></tspan></text></g></g><g id="SvgjsG1074" transform="translate(412.7223986567616,465.27278335006145)"><path id="SvgjsPath1075" d="M 0 4Q 0 0 4 0L 95 0Q 99 0 99 4L 99 52Q 99 56 95 56L 4 56Q 0 56 0 52Z" stroke="rgba(50,50,50,1)" stroke-width="2" fill-opacity="1" fill="#ccffcc"></path><g id="SvgjsG1076"><text id="SvgjsText1077" font-family="微软雅黑" text-anchor="middle" font-size="16px" width="79px" fill="#323232" font-weight="400" align="middle" anchor="middle" family="微软雅黑" size="16px" weight="400" font-style="" opacity="1" y="15.6" transform="rotate(0)"><tspan id="SvgjsTspan1078" dy="20" x="49.5"><tspan id="SvgjsTspan1079" style="text-decoration:;">sendto()</tspan></tspan></text></g></g><g id="SvgjsG1080"><path id="SvgjsPath1081" d="M106.1028750078284 357.52278335006145L106.1028750078284 433.0544117332523L106.1028750078284 433.0544117332523L106.1028750078284 508.5860401164432" stroke="#323232" stroke-width="2" fill="none" marker-end="url(#SvgjsMarker1082)"></path></g><g id="SvgjsG1084"><path id="SvgjsPath1085" d="M106.1028750078284 562.5876003602292L106.1028750078284 596.4748173200069L106.1028750078284 596.4748173200069L106.1028750078284 630.3620342797847" stroke="#323232" stroke-width="2" fill="none" marker-end="url(#SvgjsMarker1086)"></path></g><g id="SvgjsG1088"><path id="SvgjsPath1089" d="M511.7223986567616 493.27278335006145L543.3292547319643 493.27278335006145L543.3292547319643 272.77053640642725L513.3292547319643 272.77053640642725" stroke="#323232" stroke-width="2" fill="none" marker-end="url(#SvgjsMarker1090)"></path></g><g id="SvgjsG1092"><path id="SvgjsPath1093" d="M55.00531118222932 535.5868202383363L25.00531118222932 535.5868202383363L25.00531118222932 329.52278335006145L56.6028750078284 329.52278335006145" stroke="#323232" stroke-width="2" fill="none" marker-end="url(#SvgjsMarker1094)"></path></g><g id="SvgjsG1096" transform="translate(413.69474459277524,333.71028335006145)"><path id="SvgjsPath1097" d="M 0 4Q 0 0 4 0L 95 0Q 99 0 99 4L 99 52Q 99 56 95 56L 4 56Q 0 56 0 52Z" stroke-dasharray="10,6" stroke="rgba(0,0,0,1)" stroke-width="2" fill="none"></path><g id="SvgjsG1098"><text id="SvgjsText1099" font-family="微软雅黑" text-anchor="middle" font-size="16px" width="79px" fill="#323232" font-weight="400" align="middle" anchor="middle" family="微软雅黑" size="16px" weight="400" font-style="" opacity="1" y="15.6" transform="rotate(0)"><tspan id="SvgjsTspan1100" dy="20" x="49.5"><tspan id="SvgjsTspan1101" style="text-decoration:;">阻塞</tspan></tspan></text></g></g><g id="SvgjsG1102"><path id="SvgjsPath1103" d="M155.6028750078284 329.52278335006145L413.69474459277524 361.71028335006145" stroke="#323232" stroke-width="2" fill="none" marker-end="url(#SvgjsMarker1104)"></path><rect id="SvgjsRect1106" width="78" height="16" x="245.4119415283203" y="324.25426483154297" fill="#ffffff"></rect><text id="SvgjsText1107" font-family="微软雅黑" text-anchor="middle" font-size="13px" width="78px" fill="#323232" font-weight="700" align="top" anchor="middle" family="微软雅黑" size="13px" weight="700" font-style="" opacity="1" y="322.304264831543" transform="rotate(0)"><tspan id="SvgjsTspan1108" dy="16" x="284.4119415283203"><tspan id="SvgjsTspan1109" style="text-decoration:;">数据（请求）</tspan></tspan></text></g><g id="SvgjsG1110"><path id="SvgjsPath1111" d="M412.7223986567616 493.27278335006145L157.20043883342748 535.5868202383363" stroke="#323232" stroke-width="2" fill="none" marker-end="url(#SvgjsMarker1112)"></path><rect id="SvgjsRect1114" width="78" height="16" x="245.4119415283203" y="493.25426483154297" fill="#ffffff"></rect><text id="SvgjsText1115" font-family="微软雅黑" text-anchor="middle" font-size="13px" width="78px" fill="#323232" font-weight="700" align="top" anchor="middle" family="微软雅黑" size="13px" weight="700" font-style="" opacity="1" y="491.304264831543" transform="rotate(0)"><tspan id="SvgjsTspan1116" dy="16" x="284.4119415283203"><tspan id="SvgjsTspan1117" style="text-decoration:;">数据（应答）</tspan></tspan></text></g><g id="SvgjsG1118"><path id="SvgjsPath1119" d="M462.2316909063652 299.7713165283203L463.19474459277524 333.71028335006145" stroke="#323232" stroke-width="2" fill="none" marker-end="url(#SvgjsMarker1120)"></path></g><g id="SvgjsG1122"><path id="SvgjsPath1123" d="M463.19474459277524 389.71028335006145L462.2223986567616 465.27278335006145" stroke="#323232" stroke-width="2" fill="none" marker-end="url(#SvgjsMarker1124)"></path><rect id="SvgjsRect1126" width="64" height="20" x="430.7085716247684" y="417.49153335006145" fill="#ffffff"></rect><text id="SvgjsText1127" font-family="微软雅黑" text-anchor="middle" font-size="16px" width="64px" fill="#323232" font-weight="400" align="top" anchor="middle" family="微软雅黑" size="16px" weight="400" font-style="" opacity="1" y="415.09153335006147" transform="rotate(0)"><tspan id="SvgjsTspan1128" dy="20" x="462.7085716247684"><tspan id="SvgjsTspan1129" style="text-decoration:;">处理请求</tspan></tspan></text></g></svg>