<?xml version="1.0" encoding="UTF-8" standalone="no"?><svg xmlns="http://www.w3.org/2000/svg" xmlns:xlink="http://www.w3.org/1999/xlink" contentScriptType="application/ecmascript" contentStyleType="text/css" height="234px" preserveAspectRatio="none" style="width:360px;height:234px;" version="1.1" viewBox="0 0 360 234" width="360px" zoomAndPan="magnify"><defs><filter height="300%" id="f1hq5iq99hyzgf" width="300%" x="-1" y="-1"><feGaussianBlur result="blurOut" stdDeviation="2.0"/><feColorMatrix in="blurOut" result="blurOut2" type="matrix" values="0 0 0 0 0 0 0 0 0 0 0 0 0 0 0 0 0 0 .4 0"/><feOffset dx="4.0" dy="4.0" in="blurOut2" result="blurOut3"/><feBlend in="SourceGraphic" in2="blurOut3" mode="normal"/></filter></defs><g><text fill="#000000" font-family="sans-serif" font-size="18" lengthAdjust="spacingAndGlyphs" textLength="201" x="83" y="16.708">Chain of Responsibility</text><!--MD5=[ed6624c6556d5e7b1bd23032162d20b7]
class Client--><rect fill="#FEFECE" filter="url(#f1hq5iq99hyzgf)" height="48" id="Client" style="stroke: #A80036; stroke-width: 1.5;" width="67" x="6" y="41.9531"/><ellipse cx="21" cy="57.9531" fill="#ADD1B2" rx="11" ry="11" style="stroke: #A80036; stroke-width: 1.0;"/><path d="M23.3438,53.625 L23.5156,53.7031 C23.7344,53.3906 23.9375,53.2969 24.2344,53.2969 C24.5313,53.2969 24.8125,53.4375 24.9688,53.7031 C25.0625,53.8594 25.0781,53.9844 25.0781,54.4219 L25.0781,55.8438 C25.0781,56.2656 25.0469,56.4531 24.9375,56.6094 C24.7656,56.8281 24.5,56.9688 24.2344,56.9688 C24.0156,56.9688 23.7813,56.8594 23.6406,56.7188 C23.5,56.5938 23.4688,56.4688 23.4063,56.0625 C23.3125,55.6563 23.1406,55.4375 22.6563,55.1563 C22.1875,54.9063 21.5781,54.75 21,54.75 C19.2656,54.75 18.0156,56.0625 18.0156,57.8438 L18.0156,58.9375 C18.0156,60.6406 19.3125,61.7344 21.3594,61.7344 C22.125,61.7344 22.8125,61.6094 23.2344,61.3438 C23.4219,61.25 23.4219,61.25 23.875,60.7656 C24.0625,60.5781 24.2656,60.5 24.4844,60.5 C24.9531,60.5 25.3438,60.8906 25.3438,61.3438 C25.3438,61.7344 25.0156,62.1875 24.4375,62.5938 C23.6875,63.1406 22.5313,63.4375 21.3125,63.4375 C18.4219,63.4375 16.3125,61.5469 16.3125,58.9688 L16.3125,57.8438 C16.3125,55.125 18.3125,53.0469 20.9375,53.0469 C21.8125,53.0469 22.4063,53.1875 23.3438,53.625 Z "/><text fill="#000000" font-family="sans-serif" font-size="12" lengthAdjust="spacingAndGlyphs" textLength="35" x="35" y="62.1074">Client</text><line style="stroke: #A80036; stroke-width: 1.5;" x1="7" x2="72" y1="73.9531" y2="73.9531"/><line style="stroke: #A80036; stroke-width: 1.5;" x1="7" x2="72" y1="81.9531" y2="81.9531"/><!--MD5=[a83d828be13d333e1fddb3d4d9d97191]
class Handler--><rect fill="#FEFECE" filter="url(#f1hq5iq99hyzgf)" height="73.6094" id="Handler" style="stroke: #A80036; stroke-width: 1.5;" width="149" x="108" y="28.9531"/><ellipse cx="153.75" cy="44.9531" fill="#A9DCDF" rx="11" ry="11" style="stroke: #A80036; stroke-width: 1.0;"/><path d="M155.3281,46.7656 L151.2813,46.7656 L150.8906,47.75 L151.2813,47.75 C151.7344,47.75 151.875,47.7813 152.0469,47.9063 C152.2656,48.0781 152.3906,48.3281 152.3906,48.6094 C152.3906,48.8906 152.25,49.1875 151.9844,49.3281 C151.8594,49.4219 151.6406,49.4531 151.2813,49.4531 L149.0156,49.4531 C148.2656,49.4531 147.8906,49.1719 147.8906,48.6094 C147.8906,48.3125 148.0469,48.0313 148.2969,47.875 C148.4531,47.7656 148.6094,47.75 149.0313,47.75 L151.6719,41.2344 L150.5938,41.2344 C150.1563,41.2344 149.9844,41.2031 149.8125,41.0938 C149.5938,40.9219 149.4531,40.6719 149.4531,40.3906 C149.4531,40.1094 149.6094,39.8281 149.8594,39.6563 C150.0156,39.5625 150.1406,39.5469 150.5938,39.5469 L154.2656,39.5469 L157.6563,47.75 C158.125,47.75 158.2813,47.7813 158.4531,47.9219 C158.6719,48.0781 158.8125,48.3281 158.8125,48.6094 C158.8125,48.8906 158.6563,49.1875 158.4063,49.3281 C158.2656,49.4219 158.0469,49.4531 157.6875,49.4531 L155.3281,49.4531 C154.9063,49.4531 154.7031,49.4063 154.5625,49.2813 C154.3438,49.125 154.2031,48.875 154.2031,48.6094 C154.2031,48.3125 154.3594,48.0313 154.6094,47.875 C154.7656,47.7656 154.875,47.75 155.3281,47.75 L155.7188,47.75 Z M154.625,45.0625 L153.2969,41.7969 L151.9531,45.0625 Z "/><text fill="#000000" font-family="sans-serif" font-size="12" font-style="italic" lengthAdjust="spacingAndGlyphs" textLength="49" x="174.25" y="49.1074">Handler</text><line style="stroke: #A80036; stroke-width: 1.5;" x1="109" x2="256" y1="60.9531" y2="60.9531"/><ellipse cx="119" cy="71.9531" fill="none" rx="3" ry="3" style="stroke: #038048; stroke-width: 1.0;"/><text fill="#000000" font-family="sans-serif" font-size="11" lengthAdjust="spacingAndGlyphs" textLength="111" x="128" y="75.1636">successor: Handler</text><line style="stroke: #A80036; stroke-width: 1.5;" x1="109" x2="256" y1="81.7578" y2="81.7578"/><ellipse cx="119" cy="92.7578" fill="#84BE84" rx="3" ry="3" style="stroke: #038048; stroke-width: 1.0;"/><text fill="#000000" font-family="sans-serif" font-size="11" lengthAdjust="spacingAndGlyphs" textLength="123" x="128" y="95.9683">handleRequest(): void</text><!--MD5=[41186bb9a4ec992402626476abc15f3a]
class ConcreteHandlerA--><rect fill="#FEFECE" filter="url(#f1hq5iq99hyzgf)" height="60.8047" id="ConcreteHandlerA" style="stroke: #A80036; stroke-width: 1.5;" width="149" x="16" y="162.9531"/><ellipse cx="32.35" cy="178.9531" fill="#ADD1B2" rx="11" ry="11" style="stroke: #A80036; stroke-width: 1.0;"/><path d="M34.6938,174.625 L34.8656,174.7031 C35.0844,174.3906 35.2875,174.2969 35.5844,174.2969 C35.8813,174.2969 36.1625,174.4375 36.3188,174.7031 C36.4125,174.8594 36.4281,174.9844 36.4281,175.4219 L36.4281,176.8438 C36.4281,177.2656 36.3969,177.4531 36.2875,177.6094 C36.1156,177.8281 35.85,177.9688 35.5844,177.9688 C35.3656,177.9688 35.1313,177.8594 34.9906,177.7188 C34.85,177.5938 34.8188,177.4688 34.7563,177.0625 C34.6625,176.6563 34.4906,176.4375 34.0063,176.1563 C33.5375,175.9063 32.9281,175.75 32.35,175.75 C30.6156,175.75 29.3656,177.0625 29.3656,178.8438 L29.3656,179.9375 C29.3656,181.6406 30.6625,182.7344 32.7094,182.7344 C33.475,182.7344 34.1625,182.6094 34.5844,182.3438 C34.7719,182.25 34.7719,182.25 35.225,181.7656 C35.4125,181.5781 35.6156,181.5 35.8344,181.5 C36.3031,181.5 36.6938,181.8906 36.6938,182.3438 C36.6938,182.7344 36.3656,183.1875 35.7875,183.5938 C35.0375,184.1406 33.8813,184.4375 32.6625,184.4375 C29.7719,184.4375 27.6625,182.5469 27.6625,179.9688 L27.6625,178.8438 C27.6625,176.125 29.6625,174.0469 32.2875,174.0469 C33.1625,174.0469 33.7563,174.1875 34.6938,174.625 Z "/><text fill="#000000" font-family="sans-serif" font-size="12" lengthAdjust="spacingAndGlyphs" textLength="114" x="46.65" y="183.1074">ConcreteHandlerA</text><line style="stroke: #A80036; stroke-width: 1.5;" x1="17" x2="164" y1="194.9531" y2="194.9531"/><line style="stroke: #A80036; stroke-width: 1.5;" x1="17" x2="164" y1="202.9531" y2="202.9531"/><ellipse cx="27" cy="213.9531" fill="#84BE84" rx="3" ry="3" style="stroke: #038048; stroke-width: 1.0;"/><text fill="#000000" font-family="sans-serif" font-size="11" lengthAdjust="spacingAndGlyphs" textLength="123" x="36" y="217.1636">handleRequest(): void</text><!--MD5=[484b60824d2caf25f523d10c82f481de]
class ConcreteHandlerB--><rect fill="#FEFECE" filter="url(#f1hq5iq99hyzgf)" height="60.8047" id="ConcreteHandlerB" style="stroke: #A80036; stroke-width: 1.5;" width="149" x="200" y="162.9531"/><ellipse cx="216.35" cy="178.9531" fill="#ADD1B2" rx="11" ry="11" style="stroke: #A80036; stroke-width: 1.0;"/><path d="M218.6938,174.625 L218.8656,174.7031 C219.0844,174.3906 219.2875,174.2969 219.5844,174.2969 C219.8813,174.2969 220.1625,174.4375 220.3188,174.7031 C220.4125,174.8594 220.4281,174.9844 220.4281,175.4219 L220.4281,176.8438 C220.4281,177.2656 220.3969,177.4531 220.2875,177.6094 C220.1156,177.8281 219.85,177.9688 219.5844,177.9688 C219.3656,177.9688 219.1313,177.8594 218.9906,177.7188 C218.85,177.5938 218.8188,177.4688 218.7563,177.0625 C218.6625,176.6563 218.4906,176.4375 218.0063,176.1563 C217.5375,175.9063 216.9281,175.75 216.35,175.75 C214.6156,175.75 213.3656,177.0625 213.3656,178.8438 L213.3656,179.9375 C213.3656,181.6406 214.6625,182.7344 216.7094,182.7344 C217.475,182.7344 218.1625,182.6094 218.5844,182.3438 C218.7719,182.25 218.7719,182.25 219.225,181.7656 C219.4125,181.5781 219.6156,181.5 219.8344,181.5 C220.3031,181.5 220.6938,181.8906 220.6938,182.3438 C220.6938,182.7344 220.3656,183.1875 219.7875,183.5938 C219.0375,184.1406 217.8813,184.4375 216.6625,184.4375 C213.7719,184.4375 211.6625,182.5469 211.6625,179.9688 L211.6625,178.8438 C211.6625,176.125 213.6625,174.0469 216.2875,174.0469 C217.1625,174.0469 217.7563,174.1875 218.6938,174.625 Z "/><text fill="#000000" font-family="sans-serif" font-size="12" lengthAdjust="spacingAndGlyphs" textLength="114" x="230.65" y="183.1074">ConcreteHandlerB</text><line style="stroke: #A80036; stroke-width: 1.5;" x1="201" x2="348" y1="194.9531" y2="194.9531"/><line style="stroke: #A80036; stroke-width: 1.5;" x1="201" x2="348" y1="202.9531" y2="202.9531"/><ellipse cx="211" cy="213.9531" fill="#84BE84" rx="3" ry="3" style="stroke: #038048; stroke-width: 1.0;"/><text fill="#000000" font-family="sans-serif" font-size="11" lengthAdjust="spacingAndGlyphs" textLength="123" x="220" y="217.1636">handleRequest(): void</text><!--MD5=[6ba6897f57fa70fe49c06b94b657e951]
link Client to Handler--><path d="M73.0156,65.9531 C82.8488,65.9531 92.6819,65.9531 102.5151,65.9531 " fill="none" id="Client-&gt;Handler" style="stroke: #A80036; stroke-width: 1.0;"/><polygon fill="#A80036" points="107.657,65.9531,98.657,61.9531,102.657,65.9531,98.657,69.9531,107.657,65.9531" style="stroke: #A80036; stroke-width: 1.0;"/><!--MD5=[1986b5b9d1beaf6b68273a5be2f49647]
link Handler to Handler--><path d="M257.222,42.5361 C277.011,43.8741 292,51.6801 292,65.9531 C292,79.0001 279.477,86.6431 262.211,88.8821 " fill="none" id="Handler-&gt;Handler" style="stroke: #A80036; stroke-width: 1.0;"/><polygon fill="#A80036" points="257.222,89.3701,266.5689,92.4741,262.1982,88.8829,265.7894,84.5122,257.222,89.3701" style="stroke: #A80036; stroke-width: 1.0;"/><!--MD5=[0ceeeb7d0eed9aa34a4b8e005b31d68f]
reverse link Handler to ConcreteHandlerA--><path d="M144.064,119.3851 C133.258,134.1261 121.879,149.6487 112.401,162.5771 " fill="none" id="Handler&lt;-ConcreteHandlerA" style="stroke: #A80036; stroke-width: 1.0;"/><polygon fill="none" points="138.42,115.2441,155.89,103.2531,149.711,123.5221,138.42,115.2441" style="stroke: #A80036; stroke-width: 1.0;"/><!--MD5=[074cd5ec289c17fd1c2602cc590650e0]
reverse link Handler to ConcreteHandlerB--><path d="M220.936,119.3851 C231.742,134.1261 243.121,149.6487 252.599,162.5771 " fill="none" id="Handler&lt;-ConcreteHandlerB" style="stroke: #A80036; stroke-width: 1.0;"/><polygon fill="none" points="215.289,123.5221,209.11,103.2531,226.58,115.2441,215.289,123.5221" style="stroke: #A80036; stroke-width: 1.0;"/><!--MD5=[2ddac4d53e5af7631c8750bd0a54a269]
@startuml
title Chain of Responsibility

class Client
abstract class Handler {
    +successor: Handler
    +handleRequest(): void
}

class ConcreteHandlerA {
    +handleRequest(): void
}
class ConcreteHandlerB {
    +handleRequest(): void
}

Client -right-> Handler
Handler - -> Handler
ConcreteHandlerA -up-|> Handler
ConcreteHandlerB -up-|> Handler
@enduml

PlantUML version 1.2020.02(Sun Mar 01 10:22:07 UTC 2020)
(GPL source distribution)
Java Runtime: Java(TM) SE Runtime Environment
JVM: Java HotSpot(TM) 64-Bit Server VM
Java Version: 1.7.0_25-b15
Operating System: Linux
Default Encoding: UTF-8
Language: en
Country: US
--></g></svg>